<svg width="48" height="20" viewBox="0 0 48 20" fill="none" xmlns="http://www.w3.org/2000/svg">
<path d="M10.1706 3.43032C10.7268 2.7549 11.0063 1.88188 10.9487 1C10.0957 1.07668 9.30895 1.49255 8.74988 2.15617C8.19082 2.8021 7.90552 3.64563 7.95162 4.50686C8.81616 4.5334 9.64035 4.13228 10.1706 3.43032Z" fill="#333336"/>
<path d="M12.0983 9.16704C12.1155 7.99022 12.7178 6.90188 13.6948 6.27956C13.0694 5.36524 12.0204 4.72226 10.9311 4.68687C10.2069 4.68687 9.55019 4.93748 9.01342 5.14231C8.64245 5.28388 8.32877 5.40358 8.0897 5.40358C7.83793 5.40358 7.52904 5.27793 7.18119 5.13643C6.7208 4.94915 6.19214 4.7341 5.63731 4.74586C4.3578 4.7724 3.18491 5.49206 2.56244 6.63939C1.55958 9.19063 1.91404 12.087 3.49614 14.3079C4.1186 15.2428 4.87651 16.2987 5.85056 16.2987C6.31954 16.2987 6.63888 16.1558 6.97004 16.0076C7.32668 15.848 7.69703 15.6823 8.28278 15.6823C8.86001 15.6823 9.22806 15.8433 9.58263 15.9983C9.92198 16.1467 10.249 16.2897 10.7352 16.281C11.7294 16.2633 12.3893 15.3461 13.0118 14.4082C13.4585 13.7475 13.8071 13.0219 14.0435 12.258C12.859 11.7094 12.0954 10.5031 12.0983 9.16999V9.16704Z" fill="#333336"/>
<path fill-rule="evenodd" clip-rule="evenodd" d="M28.7355 9.00745C28.9977 7.06083 30.7153 5.67165 32.6288 5.86042L32.6259 5.85747C35.0783 5.85747 36.6546 7.2142 36.6546 9.20506V16.1775H34.7094V14.5052C34.0697 15.6495 32.8651 16.3397 31.5769 16.2984L31.5366 16.2188C31.3983 16.2424 31.2599 16.2571 31.1216 16.2601C29.4559 16.3132 28.064 14.9741 28.0122 13.2694C28.0122 11.4761 29.4329 10.4409 31.9054 10.2816L34.5711 10.1223V9.34663C34.5711 8.19046 33.9285 7.57403 32.6259 7.57403C31.7325 7.53569 30.9314 8.12852 30.6807 9.00745H28.7355ZM32.1245 14.5435C33.3665 14.6025 34.4328 13.6439 34.5365 12.3727H34.5394V11.5764L32.1648 11.7357C30.9199 11.8153 30.2196 12.355 30.2196 13.2104C30.2196 14.0657 31.0179 14.6231 32.1648 14.6231L32.1245 14.5435Z" fill="#333336"/>
<path d="M44.8156 5.99911L42.3056 14.284L39.7956 5.99911H37.5189L41.1385 16.2159L40.9425 16.8323C40.8042 17.7201 40.029 18.3572 39.1529 18.307H38.5304V19.9794C38.7985 19.9794 39.0636 19.9617 39.3287 19.9204L39.369 20C41.4526 20 42.4237 19.183 43.2623 16.732L47 5.99616H44.8214L44.8156 5.99911Z" fill="#333336"/>
<path fill-rule="evenodd" clip-rule="evenodd" d="M23.1945 2.07594C23.3386 2.06709 23.4856 2.06709 23.6325 2.07594V2.07889C25.9927 2.20276 27.8082 4.26441 27.6872 6.67998C27.6958 6.82156 27.6958 6.96608 27.6872 7.10765C27.5575 9.55567 25.5086 11.4315 23.1167 11.2988H20.1773V16.0975H18.0361V2.15557L23.1945 2.07594ZM20.1369 9.56747C20.1369 9.56747 22.8516 9.59696 23.0302 9.58516V9.58811C24.4481 9.48488 25.5143 8.22843 25.4135 6.78026C25.425 6.6033 25.4192 6.42633 25.3962 6.25232C25.2089 4.813 23.9178 3.7984 22.5115 3.99011H20.1773L20.1369 9.56747Z" fill="#333336"/>
</svg>
