<svg width="48" height="20" viewBox="0 0 48 20" fill="none" xmlns="http://www.w3.org/2000/svg">
<path d="M11.633 5.29309C10.8407 4.52017 9.78036 4.09522 8.68384 4.1137C6.68344 4.1137 4.98551 5.48824 4.3724 7.34299V7.3602C4.05008 8.33636 4.05008 9.39258 4.3724 10.3687L4.36854 10.3718C4.97835 12.2325 6.67922 13.6128 8.68384 13.6128C9.72313 13.6128 10.6118 13.3388 11.3016 12.8615L11.3053 12.8644V12.858C12.1156 12.3099 12.6699 11.4446 12.8416 10.4684H8.6875V7.44141H15.9414C16.0318 7.96798 16.074 8.50379 16.074 9.03959C16.074 11.4323 15.2365 13.4554 13.7845 14.8226H13.7765L13.7809 14.8261C12.5066 16.0271 10.7594 16.723 8.68384 16.723V16.7261C5.77685 16.7261 3.11688 15.0478 1.8125 12.3934V12.384C0.727778 10.1669 0.729168 7.55247 1.81667 5.33643L1.8125 5.33312C3.11688 2.67563 5.77685 1.00046 8.68384 1.00046C10.5937 0.978907 12.4373 1.71179 13.8291 3.04824L11.633 5.29309Z" fill="#333336"/>
<path fill-rule="evenodd" clip-rule="evenodd" d="M23.0287 10.2356V15.7785H21.3086V2.09378H25.8694C26.9689 2.06915 28.0323 2.49718 28.8216 3.27933C29.6229 4.0153 30.0717 5.06844 30.0567 6.16777C30.0808 7.27326 29.6289 8.33564 28.8216 9.07161C28.0233 9.84761 27.0382 10.2387 25.8694 10.2356H23.0287ZM23.0287 8.55428H25.9116C26.5502 8.57275 27.1678 8.31717 27.6136 7.84603C28.5173 6.94685 28.5384 5.47184 27.6588 4.54803L27.6136 4.50184C27.1738 4.02146 26.5562 3.75664 25.9116 3.77511H23.0287V8.55428Z" fill="#333336"/>
<path fill-rule="evenodd" clip-rule="evenodd" d="M34.0205 6.10938C35.2917 6.10938 36.2949 6.45734 37.0299 7.1502C37.7649 7.84613 38.1324 8.79766 38.1324 10.0078V15.7786H36.4877V14.4791H36.4123C35.7014 15.5476 34.7525 16.0834 33.5716 16.0834C32.5625 16.0834 31.719 15.7786 31.0382 15.1658C30.3785 14.5961 30.0049 13.7554 30.02 12.8716C30.02 11.9017 30.3785 11.1318 31.0954 10.5591C31.8124 9.98629 32.7673 9.69991 33.9632 9.69991C34.9845 9.69991 35.8249 9.89083 36.4877 10.2727V9.87235C36.4907 9.27188 36.2316 8.69912 35.7767 8.31728C35.3218 7.89848 34.7284 7.66753 34.1169 7.67677C33.1559 7.67677 32.3968 8.09248 31.8365 8.92083L30.3212 7.94467C31.1557 6.72217 32.3877 6.10938 34.0205 6.10938ZM31.7943 12.9117C31.7943 13.3643 32.0052 13.7924 32.3636 14.0572C32.7432 14.3621 33.2162 14.5253 33.7012 14.516C34.4272 14.516 35.123 14.2204 35.6351 13.6938C36.2045 13.1457 36.4907 12.5021 36.4907 11.7631C35.9544 11.3258 35.2074 11.1072 34.2464 11.1072C33.5475 11.1072 32.9661 11.2796 32.4992 11.6245C32.0293 11.9725 31.7943 12.3974 31.7943 12.9086V12.9117Z" fill="#333336"/>
<path d="M41.8293 19.9057L47.571 6.41504H45.7002L43.0463 13.1404H43.0101L40.2809 6.41504H38.4102L42.1847 15.1851L40.0549 19.9057H41.8293Z" fill="#333336"/>
</svg>
