<svg width="32" height="20" viewBox="0 0 32 20" fill="none" xmlns="http://www.w3.org/2000/svg">
<path d="M15.8124 16.5958C15.8525 16.6292 15.8944 16.6625 15.9364 16.6958C15.9573 16.7125 15.9783 16.7292 15.9991 16.7458C14.7741 17.5375 13.3045 18 11.7233 18C7.45834 18 4 14.6417 4 10.5C4 6.35833 7.45834 3 11.7233 3C13.3045 3 14.7741 3.4625 15.9991 4.25417C15.9783 4.27083 15.9573 4.28727 15.9364 4.3037C15.8944 4.33657 15.8525 4.36945 15.8124 4.40417C13.9931 5.94167 12.9483 8.16458 12.9483 10.5C12.9483 12.8354 13.991 15.0583 15.8124 16.5958Z" fill="#333336"/>
<path d="M21.2745 3C19.6934 3 18.2238 3.4625 16.9988 4.25417C17.0195 4.27083 17.0405 4.28727 17.0615 4.3037C17.1034 4.33657 17.1454 4.36944 17.1854 4.40417C19.0047 5.94167 20.0495 8.1625 20.0495 10.5C20.0495 12.8375 19.0069 15.0583 17.1876 16.5958C17.1475 16.6292 17.1056 16.6625 17.0636 16.6958C17.0427 16.7125 17.0217 16.7292 17.0009 16.7458C18.2259 17.5375 19.6955 18 21.2767 18C25.5417 18 29 14.6417 29 10.5C29 6.35833 25.5395 3 21.2745 3Z" fill="#333336"/>
<path d="M16.205 4.84188C16.2994 4.76063 16.3981 4.68147 16.4968 4.60647C16.5954 4.68354 16.6941 4.76064 16.7885 4.84188C18.4169 6.21688 19.4467 8.24188 19.4467 10.5002C19.4467 12.7585 18.4169 14.7835 16.7885 16.1585C16.6941 16.2398 16.5955 16.3169 16.4968 16.3939C16.3981 16.3169 16.2994 16.2398 16.205 16.1585C14.5767 14.7835 13.5469 12.7585 13.5469 10.5002C13.5469 8.24188 14.5767 6.21688 16.205 4.84188Z" fill="#333336"/>
</svg>
