<svg width="48" height="20" viewBox="0 0 48 20" fill="none" xmlns="http://www.w3.org/2000/svg">
<path d="M19.0509 5.20136L14.1965 16.8122H11.001L8.65136 7.62702C8.61377 7.1845 8.34356 6.79349 7.94177 6.59916C7.00425 6.15195 6.0174 5.81714 5 5.60407V5.26692H10.0706C10.7637 5.27394 11.3511 5.77968 11.4568 6.46336L12.7092 13.2042L15.8202 5.30204L19.0509 5.20136ZM31.4477 13.0215C31.4477 9.97073 27.2207 9.80215 27.2536 8.42074C27.2536 8.01569 27.6601 7.56146 28.5224 7.46078C29.5374 7.35776 30.5595 7.53336 31.4829 7.96652L32.0069 5.50574C31.107 5.17794 30.1577 5.00702 29.1991 5C26.2385 5 24.1262 6.56638 24.1262 8.84219C24.1262 10.528 25.6135 11.4364 26.7484 11.9937C27.8809 12.5509 28.3039 12.9372 28.3039 13.443C28.3039 14.218 27.3734 14.5551 26.5111 14.5715C25.4396 14.5996 24.3799 14.3491 23.433 13.848L22.8409 16.3931C23.9194 16.8075 25.0684 17.0112 26.2221 16.9995C29.3683 16.9995 31.4148 15.4495 31.4313 13.0215M39.2439 16.8122H42L39.5987 5.20136H37.061C36.4971 5.20136 35.9896 5.54086 35.7758 6.06064L31.295 16.8122H34.4412L35.0497 15.1264H38.8891L39.2439 16.8122ZM35.8627 12.7008L37.4534 8.35284L38.4003 12.6844L35.8627 12.7008ZM23.278 5.20136L20.8085 16.8122H17.8667L20.3362 5.20136H23.278Z" fill="#333336"/>
</svg>
