<svg width="104" height="80" viewBox="0 0 104 80" fill="none" xmlns="http://www.w3.org/2000/svg">
<path fill-rule="evenodd" clip-rule="evenodd" d="M3.43747e-05 20.5712L13.8667 0L17.3334 2.28568L3.4667 22.8568L3.43747e-05 20.5712ZM22.5334 5.71421L8.6667 26.2854L5.20003 23.9997L19.0667 3.42853L22.5334 5.71421ZM10.4 27.4282L24.2667 6.85705L27.7334 9.14273L13.8667 29.7139L10.4 27.4282ZM93.6 52.5707L87.2445 61.9992L83.7778 59.7135L90.1334 50.285L93.6 52.5707ZM88.9778 63.142L95.3334 53.7136L98.8 55.9993L92.4445 65.4277L88.9778 63.142ZM104 59.4278L97.6445 68.8562L94.1778 66.5705L100.533 57.1421L104 59.4278ZM86.0889 63.7134L79.7334 73.1419L76.2667 70.8562L82.6222 61.4277L86.0889 63.7134ZM81.4667 74.2847L87.8222 64.8563L91.2889 67.142L84.9334 76.5704L81.4667 74.2847ZM96.4889 70.5705L90.1334 79.9989L86.6667 77.7132L93.0222 68.2848L96.4889 70.5705Z" fill="#1D1D1F"/>
<path fill-rule="evenodd" clip-rule="evenodd" d="M13.8667 80.0008L0 59.4297L3.46667 57.144L17.3333 77.7152L13.8667 80.0008ZM8.66667 53.7155L15.0222 63.1439L11.5556 65.4296L5.2 56.0012L8.66667 53.7155ZM24.2667 73.1438L10.4 52.5726L13.8667 50.287L27.7333 70.8581L24.2667 73.1438ZM79.7333 6.85896L86.0889 16.2874L82.6222 18.5731L76.2667 9.14465L79.7333 6.85896ZM95.3333 26.2873L81.4667 5.71612L84.9333 3.43044L98.8 24.0016L95.3333 26.2873ZM90.1333 0.00191067L96.4889 9.43036L93.0222 11.716L86.6667 2.2876L90.1333 0.00191067ZM16.1778 64.8582L22.5333 74.2866L19.0667 76.5723L12.7111 67.1439L16.1778 64.8582ZM87.2444 18.0017L93.6 27.4301L90.1333 29.7158L83.7778 20.2874L87.2444 18.0017ZM97.6444 11.1446L104 20.5731L100.533 22.8588L94.1778 13.4303L97.6444 11.1446Z" fill="#1D1D1F"/>
<path d="M62.3997 46.8562C59.6415 50.948 55.3526 53.7886 50.4767 54.7531C45.6007 55.7176 40.5371 54.7269 36.3997 51.999C32.2624 49.2711 29.3902 45.0294 28.415 40.2071C27.4398 35.3848 28.4415 30.3769 31.1997 26.285C34.8774 20.8292 40.5959 17.0417 47.0971 15.7558C53.5984 14.4698 60.3499 15.7908 65.8664 19.428C71.3829 23.0652 75.2125 28.7207 76.5128 35.1505C77.813 41.5802 76.4774 48.2574 72.7997 53.7132" fill="#CD2E3A"/>
<path d="M52 40.0007C53.8388 37.2728 56.698 35.379 59.9487 34.736C63.1993 34.0931 66.575 34.7535 69.3333 36.5721C72.0916 38.3907 74.0064 41.2185 74.6565 44.4334C75.3066 47.6482 74.6388 50.9869 72.8 53.7148C69.1223 59.1706 63.4038 62.958 56.9026 64.244C50.4013 65.5299 43.6498 64.209 38.1333 60.5718C32.6168 56.9346 28.7872 51.2791 27.4869 44.8493C26.1867 38.4196 27.5223 31.7424 31.2 26.2866C29.3611 29.0145 28.6933 32.3531 29.3435 35.5679C29.9936 38.7828 31.9084 41.6106 34.6666 43.4292C37.4249 45.2478 40.8006 45.9082 44.0513 45.2653C47.3019 44.6223 50.1611 42.7286 52 40.0007Z" fill="#0047A0"/>
</svg>
