<svg width="24" height="24" viewBox="0 0 24 24" fill="none" xmlns="http://www.w3.org/2000/svg">
<path d="M15.1745 14.3701C15.1745 16.7039 13.7541 17.727 11.9999 17.7292C10.2479 17.7292 8.8252 16.7039 8.8252 14.3723C8.8252 12.0407 10.2457 9.28101 11.9999 9.28101C13.7541 9.28101 15.1745 12.0385 15.1745 14.3701Z" fill="#F5F5F7"/>
<path d="M17.0149 6.70531H6.98486C6.98486 3.93531 9.23486 1.69531 12.0049 1.69531C14.7749 1.69531 17.0149 3.93531 17.0149 6.70531Z" stroke="#F5F5F7" stroke-width="1.5" stroke-miterlimit="10"/>
<path d="M20.855 8.22508L19.435 19.1251C19.355 19.7951 18.785 20.3051 18.105 20.3051H5.97499C5.30499 20.3051 4.73499 19.8051 4.64499 19.1351L3.14499 8.23508C3.03499 7.42508 3.65499 6.70508 4.47499 6.70508H19.525C20.335 6.70508 20.965 7.41508 20.855 8.22508Z" stroke="#F5F5F7" stroke-width="1.5" stroke-miterlimit="10"/>
</svg>
