<svg width="18" height="18" viewBox="0 0 18 18" fill="none" xmlns="http://www.w3.org/2000/svg">
<g clip-path="url(#clip0_14495_22176)">
<mask id="mask0_14495_22176" style="mask-type:luminance" maskUnits="userSpaceOnUse" x="0" y="0" width="18" height="18">
<path d="M18 0H0V18H18V0Z" fill="white"/>
</mask>
<g mask="url(#mask0_14495_22176)">
<path d="M6.75031 8.99936L8.2503 10.4994L9.7503 8.99936L11.2503 7.49934M5.96007 3.18662L4.68927 3.1771C3.85208 3.17083 3.17181 3.85111 3.17808 4.68829L3.18759 5.9591C3.19063 6.3647 3.02928 6.75424 2.74032 7.0389L1.83501 7.93076C1.23859 8.51831 1.23859 9.48034 1.83501 10.0679L2.74032 10.9598C3.02928 11.2444 3.19063 11.634 3.18759 12.0396L3.17808 13.3104C3.17181 14.1476 3.85208 14.8278 4.68927 14.8215L5.96007 14.8121C6.36567 14.809 6.75522 14.9703 7.03987 15.2593L7.93178 16.1646C8.51933 16.761 9.48135 16.761 10.0689 16.1646L10.9607 15.2593C11.2454 14.9703 11.635 14.809 12.0406 14.8121L13.3114 14.8215C14.1485 14.8278 14.8288 14.1476 14.8226 13.3104L14.813 12.0396C14.81 11.634 14.9714 11.2444 15.2603 10.9598L16.1657 10.0679C16.7621 9.48034 16.7621 8.51831 16.1657 7.93076L15.2603 7.0389C14.9714 6.75424 14.81 6.3647 14.813 5.9591L14.8226 4.68829C14.8288 3.85111 14.1485 3.17083 13.3114 3.1771L12.0406 3.18662C11.635 3.18965 11.2454 3.0283 10.9607 2.73935L10.0689 1.83403C9.48135 1.23761 8.51925 1.23762 7.93178 1.83403L7.03987 2.73935C6.75522 3.0283 6.36567 3.18965 5.96007 3.18662Z" stroke="#1D1D1F" stroke-width="1.5" stroke-linecap="round" stroke-linejoin="round"/>
</g>
</g>
<defs>
<clipPath id="clip0_14495_22176">
<rect width="18" height="18" fill="white"/>
</clipPath>
</defs>
</svg>
