<svg width="25" height="24" viewBox="0 0 25 24" fill="none" xmlns="http://www.w3.org/2000/svg">
<path d="M12.5 2.16867C15.6807 2.16867 16.1145 2.16867 17.4157 2.16867C18.5723 2.16867 19.1506 2.45783 19.5843 2.60241C20.1627 2.89157 20.5964 3.03615 21.0301 3.46988C21.4639 3.90362 21.753 4.33735 21.8976 4.91566C22.0422 5.3494 22.1867 5.92771 22.3313 7.08434C22.3313 8.38554 22.3313 8.6747 22.3313 12C22.3313 15.3253 22.3313 15.6145 22.3313 16.9157C22.3313 18.0723 22.0422 18.6506 21.8976 19.0843C21.6084 19.6627 21.4639 20.0964 21.0301 20.5301C20.5964 20.9639 20.1627 21.253 19.5843 21.3976C19.1506 21.5422 18.5723 21.6867 17.4157 21.8313C16.1145 21.8313 15.8253 21.8313 12.5 21.8313C9.1747 21.8313 8.88554 21.8313 7.58434 21.8313C6.42771 21.8313 5.8494 21.5422 5.41566 21.3976C4.83735 21.1084 4.40362 20.9639 3.96988 20.5301C3.53615 20.0964 3.24699 19.6627 3.10241 19.0843C2.95783 18.6506 2.81325 18.0723 2.66867 16.9157C2.66867 15.6145 2.66867 15.3253 2.66867 12C2.66867 8.6747 2.66867 8.38554 2.66867 7.08434C2.66867 5.92771 2.95783 5.3494 3.10241 4.91566C3.39157 4.33735 3.53615 3.90362 3.96988 3.46988C4.40362 3.03615 4.83735 2.74699 5.41566 2.60241C5.8494 2.45783 6.42771 2.31325 7.58434 2.16867C8.88554 2.16867 9.31928 2.16867 12.5 2.16867ZM12.5 0C9.1747 0 8.88554 0 7.58434 0C6.28313 0 5.41566 0.289157 4.69277 0.578314C3.96988 0.867471 3.24699 1.30121 2.5241 2.0241C1.80121 2.74699 1.51205 3.3253 1.07831 4.19277C0.789157 4.91566 0.644578 5.78313 0.5 7.08434C0.5 8.38554 0.5 8.81928 0.5 12C0.5 15.3253 0.5 15.6145 0.5 16.9157C0.5 18.2169 0.789157 19.0843 1.07831 19.8072C1.36747 20.5301 1.80121 21.253 2.5241 21.9759C3.24699 22.6988 3.8253 22.988 4.69277 23.4217C5.41566 23.7108 6.28313 23.8554 7.58434 24C8.88554 24 9.31928 24 12.5 24C15.6807 24 16.1145 24 17.4157 24C18.7169 24 19.5843 23.7108 20.3072 23.4217C21.0301 23.1325 21.753 22.6988 22.4759 21.9759C23.1988 21.253 23.488 20.6747 23.9217 19.8072C24.2108 19.0843 24.3554 18.2169 24.5 16.9157C24.5 15.6145 24.5 15.1807 24.5 12C24.5 8.81928 24.5 8.38554 24.5 7.08434C24.5 5.78313 24.2108 4.91566 23.9217 4.19277C23.6325 3.46988 23.1988 2.74699 22.4759 2.0241C21.753 1.30121 21.1747 1.01205 20.3072 0.578314C19.5843 0.289157 18.7169 0.144578 17.4157 0C16.1145 0 15.8253 0 12.5 0Z" fill="#F5F5F7"/>
<path d="M12.5 5.78313C9.03012 5.78313 6.28313 8.53012 6.28313 12C6.28313 15.4699 9.03012 18.2169 12.5 18.2169C15.9699 18.2169 18.7169 15.4699 18.7169 12C18.7169 8.53012 15.9699 5.78313 12.5 5.78313ZM12.5 16.0482C10.3313 16.0482 8.45181 14.3133 8.45181 12C8.45181 9.83133 10.1867 7.95181 12.5 7.95181C14.6687 7.95181 16.5482 9.68675 16.5482 12C16.5482 14.1687 14.6687 16.0482 12.5 16.0482Z" fill="#F5F5F7"/>
<path d="M18.8614 7.08434C19.6599 7.08434 20.3072 6.43704 20.3072 5.63856C20.3072 4.84007 19.6599 4.19277 18.8614 4.19277C18.063 4.19277 17.4157 4.84007 17.4157 5.63856C17.4157 6.43704 18.063 7.08434 18.8614 7.08434Z" fill="#F5F5F7"/>
</svg>
