<svg width="32" height="32" viewBox="0 0 32 32" fill="none" xmlns="http://www.w3.org/2000/svg">
<path d="M17.2863 13.0847C17.2863 12.4332 17.2863 11.8599 17.2863 11.3127C17.2863 11.0261 17.2081 10.9479 16.9216 10.9479C15.5669 10.9739 14.1862 10.9739 12.8315 10.9479C12.5189 10.9479 12.4407 11.0261 12.4407 11.3388C12.4407 16.4202 12.4407 21.5016 12.4407 26.5831C12.4407 26.8958 12.5449 27 12.8575 27C14.2643 26.9739 15.6711 27 17.0779 27C17.3905 27 17.4947 26.9218 17.4947 26.6091C17.4687 24.0554 17.4687 21.5277 17.4947 18.9739C17.4947 18.4528 17.5208 17.9055 17.625 17.3844C17.9897 15.2476 19.3704 14.7785 21.0898 15.0391C22.1319 15.1954 22.6529 15.9511 22.8092 16.9414C22.9395 17.6449 22.9916 18.3746 22.9916 19.0782C23.0176 21.5798 23.0176 24.1075 22.9916 26.6091C22.9916 26.8958 23.0697 27 23.3824 27C24.7891 26.9739 26.222 27 27.6288 27C27.9153 27 27.9935 26.9218 27.9935 26.6352C27.9935 23.5081 28.0195 20.3811 27.9674 17.2541C27.9414 16.316 27.8111 15.3518 27.6027 14.4137C27.1859 12.6417 26.1699 11.3648 24.3723 10.8436C23.7992 10.6873 23.2261 10.6091 22.6269 10.557C20.6991 10.3746 19.0578 10.9479 17.7813 12.4593C17.625 12.6156 17.4947 12.8241 17.2863 13.0847ZM4.39077 18.9479C4.39077 21.5016 4.39077 24.0554 4.39077 26.6091C4.39077 26.8958 4.46893 27 4.7555 27C6.18833 27 7.62117 27 9.054 27C9.34057 27 9.41872 26.8958 9.41872 26.6091C9.41872 21.5016 9.41872 16.3941 9.41872 11.2866C9.41872 11.0261 9.34057 10.9218 9.054 10.9218C7.62117 10.9479 6.21438 10.9218 4.78155 10.9218C4.36472 10.9218 4.36472 10.9218 4.36472 11.3388C4.39077 13.8664 4.39077 16.3941 4.39077 18.9479ZM6.91777 3C5.30258 3 4 4.27687 4 5.86645C4 7.48208 5.27653 8.78502 6.89172 8.78502C8.50692 8.78502 9.78345 7.48208 9.78345 5.86645C9.8095 4.27687 8.53297 3 6.91777 3Z" fill="#F5F5F7"/>
</svg>
