<svg width="24" height="24" viewBox="0 0 24 24" fill="none" xmlns="http://www.w3.org/2000/svg">
<path d="M13.3894 2.8339C14.1107 3.18669 14.751 3.71498 15.4288 4.1439C15.8002 4.37622 16.1876 4.544 16.5846 4.64402C16.9927 4.74839 17.4085 4.817 17.8172 4.91828C18.0797 4.98282 18.3903 5.06025 18.6944 5.16995C19.6869 5.52167 20.3945 6.22829 20.7979 7.27047C20.8843 7.49311 20.9419 7.76738 20.9772 8.09972C21.0732 9.0806 20.8651 10.0776 20.3753 10.9875C19.6229 12.3782 18.6528 14.156 18.2878 14.7497C17.9196 15.3563 16.7094 17.3665 16.4405 17.8247C16.226 18.1861 15.9667 18.5313 15.6465 18.8798C15.0414 19.538 14.3531 19.993 13.5751 20.2511C13.0873 20.413 12.5623 20.4943 12 20.5C11.4377 20.4943 10.9127 20.413 10.4249 20.2511C9.64695 19.993 8.9586 19.538 8.3535 18.8798C8.03334 18.5313 7.77401 18.1861 7.5595 17.8247C7.29057 17.3665 6.08037 15.3563 5.71218 14.7497C5.3472 14.156 4.37711 12.3782 3.62473 10.9875C3.13489 10.0776 2.92679 9.0806 3.02284 8.09972C3.05806 7.76738 3.11568 7.49311 3.20213 7.27047C3.60552 6.22829 4.31308 5.52167 5.30557 5.16995C5.60973 5.06025 5.92029 4.98282 6.18281 4.91828C6.59154 4.81699 7.00732 4.74838 7.41543 4.64402C7.81244 4.544 8.19982 4.37622 8.57121 4.1439C9.24903 3.71498 9.88931 3.18669 10.6106 2.8339C11.5155 2.3887 12.4845 2.3887 13.3894 2.8339Z" stroke="#F5F5F7" stroke-width="1.5" stroke-miterlimit="10"/>
</svg>
