<svg width="14" height="14" viewBox="0 0 14 14" fill="none" xmlns="http://www.w3.org/2000/svg">
<rect x="1" y="1" width="12" height="12" rx="6" stroke="#86868B"/>
<path d="M6.12119 5.10569H5V4.98274C5.05303 4.0975 5.79544 3.39258 7.053 3.39258C8.31813 3.39258 9.00751 4.0975 8.99994 4.94176C8.99994 5.78602 8.46964 6.16307 7.90905 6.48274L7.74996 6.56471C7.56057 6.67946 7.48481 6.78602 7.48481 6.99914V7.0893L7.34087 7.54012H6.5227L6.37877 7.0893V6.96635C6.37877 6.40897 6.65149 6.13028 7.09088 5.87618L7.24997 5.79422C7.6439 5.57291 7.88632 5.35159 7.88632 4.94176C7.88632 4.52373 7.56057 4.23684 7.03785 4.23684C6.5227 4.23684 6.12877 4.52373 6.12119 5.10569Z" fill="#86868B"/>
<path d="M7.03765 8.41187H6.9623C6.48605 8.41187 6.09998 8.81481 6.09998 9.31187C6.09998 9.80892 6.48605 10.2119 6.9623 10.2119H7.03765C7.5139 10.2119 7.89998 9.80892 7.89998 9.31187C7.89998 8.81481 7.5139 8.41187 7.03765 8.41187Z" fill="#86868B"/>
</svg>
