<svg width="18" height="18" viewBox="0 0 18 18" fill="none" xmlns="http://www.w3.org/2000/svg">
<path d="M6.75 13.5H11.25M6.75 13.5C6.75 14.3284 6.07843 15 5.25 15C4.42157 15 3.75 14.3284 3.75 13.5M6.75 13.5C6.75 12.6716 6.07843 12 5.25 12C4.42157 12 3.75 12.6716 3.75 13.5M11.25 13.5C11.25 14.3284 11.9215 15 12.75 15C13.5784 15 14.25 14.3284 14.25 13.5M11.25 13.5C11.25 12.6716 11.9215 12 12.75 12C13.5784 12 14.25 12.6716 14.25 13.5M3.75 13.5H2.25C1.83579 13.5 1.5 13.1642 1.5 12.75V3.75C1.5 3.33579 1.83579 3 2.25 3H11.25C11.6642 3 12 3.33579 12 3.75V12.2007M14.25 13.5H16.5V9.3825C16.5 9.13155 16.437 8.88458 16.3168 8.66423L14.25 4.875H12M16.4504 9H12" stroke="#1D1D1F" stroke-width="1.5" stroke-linecap="round" stroke-linejoin="round"/>
</svg>
