<svg width="24" height="24" viewBox="0 0 24 24" fill="none" xmlns="http://www.w3.org/2000/svg">
<path d="M22 12C22 17.5228 17.5228 22 12 22C6.47715 22 2 17.5228 2 12C2 6.47715 6.47715 2 12 2C17.5228 2 22 6.47715 22 12Z" fill="#ABABB0"/>
<path d="M14.1647 7.36442C14.8458 7.78844 15.3601 8.44527 15.4389 9.31639C15.4807 9.77973 15.2387 10.1417 14.8696 10.2731C14.5183 10.3981 14.1049 10.294 13.832 9.97301C13.7029 9.82175 13.6221 9.62329 13.5637 9.48005L13.5637 9.48004L13.5503 9.44718C13.4809 9.27786 13.4255 9.15393 13.3474 9.05874C13.2107 8.89242 12.9651 8.74517 12.6354 8.65132C12.3106 8.55888 11.9358 8.52794 11.5794 8.56747C10.8331 8.65025 10.3514 8.99859 10.3086 9.51524C10.279 9.87395 10.3777 10.058 10.5125 10.1856C10.6729 10.3375 10.919 10.4438 11.2589 10.5636C11.571 10.6737 11.92 10.7627 12.298 10.859L12.298 10.859L12.2983 10.8591C12.3922 10.883 12.4878 10.9073 12.5851 10.9326C13.063 11.0567 13.5713 11.2003 14.0337 11.4128C14.498 11.6263 14.935 11.9176 15.2567 12.3487C15.5819 12.7844 15.7696 13.3367 15.7763 14.0356C15.785 14.9395 15.4522 15.6649 14.9144 16.1946C14.3829 16.7181 13.6669 17.0361 12.9188 17.1701C11.4438 17.4343 9.70065 17 8.8322 15.7851C8.67212 15.561 8.41776 15.1123 8.29544 14.6677C8.23487 14.4476 8.19591 14.1909 8.24706 13.9506C8.30317 13.6871 8.46805 13.4544 8.76766 13.3409C8.98197 13.2599 9.19599 13.2383 9.39727 13.3068C9.59654 13.3746 9.73006 13.5126 9.82013 13.6447C9.90814 13.7738 9.9701 13.9202 10.0174 14.0401C10.0336 14.0812 10.048 14.1186 10.0613 14.1533C10.0913 14.2318 10.1162 14.2966 10.1453 14.3583C10.5424 15.2023 11.6473 15.5434 12.6469 15.3619C13.1352 15.2733 13.5326 15.0675 13.7586 14.7987C13.9682 14.5495 14.058 14.2169 13.8887 13.7658C13.7831 13.4844 13.501 13.2706 12.9979 13.0803C12.664 12.954 12.2927 12.8579 11.8898 12.7536C11.6807 12.6994 11.4632 12.6431 11.2379 12.5792C10.6079 12.4006 9.94214 12.1669 9.42466 11.7551C8.88858 11.3285 8.52644 10.7226 8.49072 9.85308C8.44821 8.82238 8.8509 8.04024 9.49582 7.52099C10.1285 7.01156 10.9706 6.77259 11.8011 6.75573C12.6325 6.73884 13.4885 6.94339 14.1647 7.36442Z" fill="#F5F5F7"/>
</svg>
