<svg width="24" height="24" viewBox="0 0 24 24" fill="none" xmlns="http://www.w3.org/2000/svg">
<path d="M22 12C22 17.5228 17.5228 22 12 22C6.47715 22 2 17.5228 2 12C2 6.47715 6.47715 2 12 2C17.5228 2 22 6.47715 22 12Z" fill="#ABABB0"/>
<path d="M7.17578 8.61888C7.17578 8.02872 7.6542 7.55029 8.24437 7.55029H8.77942C9.21306 7.55029 9.60371 7.81236 9.76817 8.21361L11.9472 13.5297H12.0515L14.2305 8.21361C14.3949 7.81236 14.7856 7.55029 15.2192 7.55029H15.7543C16.3444 7.55029 16.8228 8.02872 16.8228 8.61888V15.5374C16.8228 16.0414 16.4143 16.4499 15.9103 16.4499C15.4063 16.4499 14.9977 16.0414 14.9977 15.5374V10.6573H14.9239L12.8516 15.83C12.7122 16.1782 12.3748 16.4065 11.9997 16.4065C11.6242 16.4065 11.2866 16.1777 11.1474 15.8289L9.07478 10.6356H9.0009V15.5374C9.0009 16.0414 8.59233 16.4499 8.08834 16.4499C7.58435 16.4499 7.17578 16.0414 7.17578 15.5374V8.61888Z" fill="#F5F5F7"/>
</svg>
