<svg width="24" height="24" viewBox="0 0 24 24" fill="none" xmlns="http://www.w3.org/2000/svg">
<path d="M22 12C22 17.5228 17.5228 22 12 22C6.47715 22 2 17.5228 2 12C2 6.47715 6.47715 2 12 2C17.5228 2 22 6.47715 22 12Z" fill="#ABABB0"/>
<path d="M14.6374 16.2296H10.589C9.99835 16.2296 9.51953 15.7295 9.51953 15.1126L9.51953 7.8811C9.51953 7.3543 9.92844 6.92725 10.4328 6.92725C10.9373 6.92725 11.3462 7.3543 11.3462 7.8811L11.3462 14.3723H14.6374C15.1503 14.3723 15.566 14.788 15.566 15.3009C15.566 15.8138 15.1503 16.2296 14.6374 16.2296Z" fill="#F5F5F7"/>
</svg>
