<svg width="262" height="262" viewBox="0 0 262 262" fill="none" xmlns="http://www.w3.org/2000/svg">
<path d="M131 0L131.015 130.87L160.15 3.28445L131.043 130.876L187.839 12.9731L131.07 130.889L212.677 28.5801L131.093 130.907L233.42 49.3228L131.111 130.93L249.027 74.1612L131.124 130.957L258.716 101.85L131.13 130.985L262 131L131.13 131.015L258.716 160.15L131.124 131.043L249.027 187.839L131.111 131.07L233.42 212.677L131.093 131.093L212.677 233.42L131.07 131.111L187.839 249.027L131.043 131.124L160.15 258.716L131.015 131.13L131 262L130.985 131.13L101.85 258.716L130.957 131.124L74.1612 249.027L130.93 131.111L49.3228 233.42L130.907 131.093L28.5801 212.677L130.889 131.07L12.9731 187.839L130.876 131.043L3.28445 160.15L130.87 131.015L0 131L130.87 130.985L3.28445 101.85L130.876 130.957L12.9731 74.1612L130.889 130.93L28.5801 49.3228L130.907 130.907L49.3228 28.5801L130.93 130.889L74.1612 12.9731L130.957 130.876L101.85 3.28445L130.985 130.87L131 0Z" stroke="#1D1D1F"/>
</svg>
