<svg width="48" height="48" viewBox="0 0 48 48" fill="none" xmlns="http://www.w3.org/2000/svg">
<path d="M24 0L24.0027 23.9762L29.3405 0.60173L24.0079 23.9773L34.4132 2.37675L24.0128 23.9797L38.9638 5.23604L24.017 23.983L42.764 9.03624L24.0203 23.9872L45.6233 13.5868L24.0227 23.9921L47.3983 18.6595L24.0238 23.9973L48 24L24.0238 24.0027L47.3983 29.3405L24.0227 24.0079L45.6233 34.4132L24.0203 24.0128L42.764 38.9638L24.017 24.017L38.9638 42.764L24.0128 24.0203L34.4132 45.6233L24.0079 24.0227L29.3405 47.3983L24.0027 24.0238L24 48L23.9973 24.0238L18.6595 47.3983L23.9921 24.0227L13.5868 45.6233L23.9872 24.0203L9.03624 42.764L23.983 24.017L5.23604 38.9638L23.9797 24.0128L2.37675 34.4132L23.9773 24.0079L0.60173 29.3405L23.9762 24.0027L0 24L23.9762 23.9973L0.60173 18.6595L23.9773 23.9921L2.37675 13.5868L23.9797 23.9872L5.23604 9.03624L23.983 23.983L9.03624 5.23604L23.9872 23.9797L13.5868 2.37675L23.9921 23.9773L18.6595 0.60173L23.9973 23.9762L24 0Z" stroke="#6C6C75"/>
</svg>
