<svg width="108" height="24" viewBox="0 0 108 24" fill="none" xmlns="http://www.w3.org/2000/svg">
<rect x="0.5" y="0.5" width="107" height="23" rx="3.5" stroke="#86868B"/>
<path d="M12.2903 7.93359H9.19434V15.5289H10.5767V12.5924H12.2903C14.0183 12.5924 15.0983 11.7736 15.0983 10.263C15.0983 8.75242 14.0183 7.93359 12.2903 7.93359ZM12.2183 11.463H10.5767V9.13359H12.2399C13.2335 9.13359 13.7591 9.55006 13.7591 10.2983C13.7591 11.0465 13.2119 11.4277 12.2399 11.4277L12.2183 11.463Z" fill="#86868B"/>
<path d="M18.072 9.883C17.6935 9.8787 17.3182 9.95208 16.9704 10.0984C16.6225 10.2447 16.3097 10.4608 16.052 10.7326C15.7944 11.0045 15.5975 11.3262 15.4742 11.6771C15.3509 12.028 15.3038 12.4003 15.336 12.7701C15.3022 13.1419 15.3478 13.5165 15.4698 13.8701C15.5918 14.2237 15.7875 14.5485 16.0445 14.8239C16.3015 15.0993 16.6142 15.3192 16.9626 15.4697C17.3111 15.6202 17.6877 15.6979 18.0684 15.6979C18.4491 15.6979 18.8257 15.6202 19.1742 15.4697C19.5226 15.3192 19.8353 15.0993 20.0923 14.8239C20.3493 14.5485 20.545 14.2237 20.667 13.8701C20.789 13.5165 20.8345 13.1419 20.8008 12.7701C20.834 12.4006 20.7879 12.0285 20.6654 11.6776C20.543 11.3268 20.3469 11.005 20.0898 10.7329C19.8327 10.4609 19.5203 10.2448 19.1727 10.0984C18.8252 9.95197 18.4502 9.87861 18.072 9.883ZM18.072 14.5912C17.1936 14.5912 16.632 13.8854 16.632 12.7701C16.632 11.6548 17.1792 10.9489 18.072 10.9489C18.9648 10.9489 19.512 11.6548 19.512 12.7701C19.512 13.8854 18.9432 14.5842 18.072 14.5842V14.5912Z" fill="#86868B"/>
<path d="M26.4813 13.6574L25.4661 9.97266H24.4005L23.3925 13.6574L22.3701 9.97266H21.0381L22.7445 15.535H23.8677L24.9045 11.8927L25.9413 15.535H27.0645L28.7709 9.97266H27.4893L26.4813 13.6574Z" fill="#86868B"/>
<path d="M31.6803 9.88281C31.3067 9.88961 30.9384 9.97077 30.5978 10.1214C30.2572 10.2719 29.9514 10.4888 29.6989 10.7588C29.4464 11.0288 29.2525 11.3463 29.129 11.692C29.0054 12.0377 28.9548 12.4044 28.9803 12.7699C28.9502 13.141 28.9994 13.5142 29.1248 13.8655C29.2503 14.2169 29.4491 14.5388 29.7087 14.8105C29.9682 15.0823 30.2827 15.2979 30.6322 15.4436C30.9816 15.5894 31.3582 15.662 31.7379 15.6569C32.2599 15.6845 32.7775 15.5509 33.218 15.2748C33.6584 14.9987 33.9995 14.5942 34.1931 14.1181L33.1203 13.6805C33.0361 13.9532 32.8598 14.1898 32.6204 14.3515C32.381 14.5131 32.0926 14.5901 31.8027 14.5699C31.5961 14.5747 31.3908 14.5384 31.199 14.4631C31.0072 14.3879 30.833 14.2752 30.6869 14.132C30.5408 13.9888 30.4259 13.818 30.3491 13.63C30.2724 13.4419 30.2353 13.2406 30.2403 13.0381H34.2147V12.6146C34.2291 11.0899 33.3507 9.88281 31.6803 9.88281ZM30.2907 12.0922C30.3411 11.7681 30.5097 11.4729 30.7653 11.2613C31.0208 11.0497 31.3459 10.9362 31.6803 10.9416C31.8391 10.9285 31.9991 10.9486 32.1494 11.0007C32.2997 11.0529 32.437 11.1358 32.5521 11.244C32.6672 11.3521 32.7575 11.4831 32.817 11.6281C32.8765 11.7732 32.9038 11.929 32.8971 12.0852L30.2907 12.0922Z" fill="#86868B"/>
<path d="M36.4962 10.8001V9.97421H35.2002V15.5295H36.4962V12.6142C36.4846 12.4259 36.514 12.2373 36.5823 12.0608C36.6505 11.8844 36.7562 11.7242 36.8923 11.5908C37.0284 11.4574 37.1918 11.3538 37.3718 11.2868C37.5517 11.2199 37.7441 11.1911 37.9362 11.2024C38.0944 11.1915 38.2532 11.1915 38.4114 11.2024V9.93185C38.3106 9.93185 38.1954 9.93185 38.0442 9.93185C37.7284 9.91581 37.4146 9.98913 37.1401 10.1431C36.8657 10.297 36.6421 10.5251 36.4962 10.8001Z" fill="#86868B"/>
<path d="M41.3853 9.88281C41.0118 9.88961 40.6435 9.97077 40.3029 10.1214C39.9623 10.2719 39.6565 10.4888 39.404 10.7588C39.1515 11.0288 38.9576 11.3463 38.834 11.692C38.7105 12.0377 38.6599 12.4044 38.6853 12.7699C38.6552 13.141 38.7045 13.5142 38.8299 13.8655C38.9553 14.2169 39.1542 14.5388 39.4137 14.8105C39.6733 15.0823 39.9878 15.2979 40.3372 15.4436C40.6867 15.5894 41.0633 15.662 41.4429 15.6569C41.9602 15.6785 42.4714 15.542 42.9061 15.2663C43.3408 14.9907 43.6774 14.5894 43.8693 14.1181L42.7605 13.7016C42.6764 13.9744 42.5001 14.211 42.2607 14.3726C42.0212 14.5342 41.7329 14.6113 41.4429 14.591C41.2406 14.5892 41.0407 14.548 40.8548 14.4698C40.6689 14.3915 40.5007 14.2778 40.36 14.1353C40.2194 13.9928 40.109 13.8243 40.0353 13.6395C39.9616 13.4548 39.9262 13.2576 39.9309 13.0593H43.9197V12.6358C43.9197 11.0899 43.0269 9.88281 41.3853 9.88281ZM39.9957 12.0922C40.0476 11.7706 40.2159 11.478 40.4697 11.268C40.7236 11.0581 41.046 10.9447 41.3781 10.9487C41.537 10.9355 41.6969 10.9557 41.8473 11.0078C41.9976 11.0599 42.1349 11.1428 42.25 11.251C42.3651 11.3592 42.4554 11.4902 42.5149 11.6352C42.5743 11.7802 42.6016 11.936 42.5949 12.0922H39.9957Z" fill="#86868B"/>
<path d="M48.6432 10.5877C48.4434 10.3579 48.1934 10.1751 47.9117 10.0529C47.63 9.93066 47.3239 9.87221 47.016 9.88183C45.4248 9.88183 44.5176 11.1877 44.5176 12.7689C44.5176 14.3501 45.4248 15.6559 47.016 15.6559C47.3241 15.6671 47.6307 15.6094 47.9127 15.4871C48.1946 15.3648 48.4444 15.1811 48.6432 14.9501V15.5289H49.9392V7.93359H48.6432V10.5877ZM48.6432 12.9524C48.6722 13.1537 48.6566 13.3587 48.5973 13.5535C48.5381 13.7483 48.4366 13.9283 48.2999 14.0811C48.1632 14.2339 47.9944 14.356 47.8051 14.4389C47.6158 14.5219 47.4105 14.5638 47.2032 14.5618C46.26 14.5618 45.7632 13.8559 45.7632 12.783C45.7632 11.7101 46.2672 11.0042 47.2032 11.0042C48.0024 11.0042 48.6432 11.5759 48.6432 12.6207V12.9524Z" fill="#86868B"/>
<path d="M57.1037 9.88183C56.7901 9.86838 56.4774 9.92492 56.1893 10.0472C55.9012 10.1695 55.6452 10.3543 55.4405 10.5877V7.93359H54.1445V15.5289H55.4405V14.943C55.6414 15.1734 55.8927 15.3565 56.1756 15.4787C56.4586 15.6009 56.7659 15.6591 57.0749 15.6489C58.6589 15.6489 59.5661 14.3359 59.5661 12.7618C59.5661 11.1877 58.6877 9.88183 57.1037 9.88183ZM56.8805 14.5407C56.6732 14.5427 56.4679 14.5007 56.2786 14.4178C56.0893 14.3348 55.9205 14.2127 55.7838 14.0599C55.6471 13.9071 55.5456 13.7272 55.4864 13.5324C55.4271 13.3376 55.4115 13.1325 55.4405 12.9312V12.5995C55.4405 11.5548 56.0453 10.983 56.8805 10.983C57.8165 10.983 58.3205 11.6889 58.3205 12.7618C58.3205 13.8348 57.7805 14.5407 56.8805 14.5407Z" fill="#86868B"/>
<path d="M62.5896 13.8762L61.2 9.97266H59.832L61.92 15.3303L61.704 15.8527C61.6673 16.0316 61.5613 16.1897 61.4083 16.2937C61.2552 16.3976 61.067 16.4394 60.8832 16.4103C60.7394 16.4206 60.595 16.4206 60.4512 16.4103V17.4762C60.6252 17.5016 60.801 17.5134 60.9768 17.5115C61.4263 17.5435 61.8731 17.4197 62.2389 17.1617C62.6048 16.9036 62.8665 16.5277 62.9784 16.0997L65.3112 10.015H63.9504L62.5896 13.8762Z" fill="#86868B"/>
<path d="M89.9997 8.77347C89.7155 8.77186 89.4337 8.82528 89.1705 8.93066C88.9073 9.03605 88.668 9.19132 88.4661 9.38759L88.3653 8.90053H86.6445V18.0205L88.6029 17.6041V15.3946C88.9924 15.7145 89.4845 15.8894 89.9925 15.8888C91.3893 15.8888 92.6709 14.7664 92.6709 12.2817C92.6709 10.0088 91.3749 8.77347 89.9997 8.77347ZM89.5317 14.1594C89.36 14.1691 89.1881 14.1412 89.0287 14.0777C88.8693 14.0142 88.7263 13.9167 88.6101 13.7923V10.8911C88.7268 10.7622 88.8714 10.6604 89.0333 10.5932C89.1953 10.5261 89.3705 10.4952 89.5461 10.5029C90.2661 10.5029 90.7557 11.3005 90.7557 12.3241C90.7557 13.3476 90.2589 14.1594 89.5317 14.1594Z" fill="#86868B"/>
<path d="M96.2851 8.77344C94.3987 8.77344 93.2539 10.3687 93.2539 12.3805C93.2539 14.7593 94.6075 15.9664 96.5371 15.9664C97.2902 15.9784 98.0339 15.801 98.6971 15.4511V13.8628C98.0948 14.1608 97.4277 14.311 96.7531 14.3005C95.9755 14.3005 95.3131 14.0252 95.2123 13.1005H99.0859C99.0859 12.9946 99.0859 12.5781 99.0859 12.3946C99.1507 10.3687 98.1715 8.77344 96.2851 8.77344ZM95.2267 11.6464C95.2267 10.757 95.7811 10.3828 96.2707 10.3828C96.7603 10.3828 97.2787 10.757 97.2787 11.6464H95.2267Z" fill="#86868B"/>
<path d="M81.3592 9.42808L81.2368 8.84926H79.5664V15.7034H81.496V11.0587C81.6703 10.8512 81.905 10.7009 82.1687 10.6277C82.4325 10.5546 82.7127 10.5621 82.972 10.6493V8.84926C82.6774 8.73613 82.3508 8.73253 82.0538 8.83915C81.7567 8.94577 81.5096 9.15524 81.3592 9.42808Z" fill="#86868B"/>
<path d="M71.6109 10.9126C71.6109 10.602 71.8701 10.482 72.2805 10.482C72.9606 10.4963 73.6273 10.6706 74.2245 10.9902V9.13373C73.6071 8.88899 72.9464 8.76664 72.2805 8.77373C70.6893 8.77373 69.6309 9.60667 69.6309 11.0043C69.6309 13.1926 72.6117 12.8396 72.6117 13.7784C72.6117 14.1455 72.2949 14.2655 71.8917 14.2655C71.131 14.2219 70.3912 14.0043 69.7317 13.6302V15.529C70.4114 15.8263 71.1473 15.9802 71.8917 15.9808C73.5189 15.9808 74.6421 15.169 74.6421 13.7502C74.6061 11.3784 71.6109 11.802 71.6109 10.9126Z" fill="#86868B"/>
<path d="M77.2413 7.22656L75.3333 7.63597V13.9395C75.3235 14.2052 75.369 14.47 75.4671 14.7178C75.5652 14.9656 75.7138 15.1912 75.9038 15.3808C76.0939 15.5704 76.3213 15.7201 76.5724 15.8206C76.8234 15.9211 77.0927 15.9704 77.3637 15.9654C77.8368 15.9861 78.308 15.8966 78.7389 15.7042V14.116C78.4869 14.2219 77.2557 14.5819 77.2557 13.4101V10.5866H78.7389V8.9348H77.2557L77.2413 7.22656Z" fill="#86868B"/>
<path d="M85.6648 8.90234H83.6992V15.707H85.6648V8.90234Z" fill="#86868B"/>
<path d="M83.6992 8.25909L85.6648 7.85674V6.33203L83.6992 6.73438V8.25909Z" fill="#86868B"/>
</svg>
