<svg width="42" height="22" viewBox="0 0 42 22" fill="none" xmlns="http://www.w3.org/2000/svg">
<path fill-rule="evenodd" clip-rule="evenodd" d="M28.833 6.17969C30.7429 6.17978 32.5428 7.92971 32.543 11.1494C32.543 14.6692 30.7631 16.2596 28.8232 16.2598C28.1176 16.2607 27.4336 16.0126 26.8926 15.5596V18.6895L24.1729 19.2793V6.35938H26.5625L26.7031 7.0498C26.9833 6.7719 27.3153 6.55162 27.6807 6.40234C28.0462 6.25305 28.4382 6.1774 28.833 6.17969ZM28.2031 8.62988C27.9592 8.61898 27.7151 8.66266 27.4902 8.75781C27.2656 8.85292 27.0653 8.99723 26.9033 9.17969V13.29C27.0646 13.4661 27.2631 13.6045 27.4844 13.6943C27.7056 13.7842 27.9442 13.8233 28.1826 13.8096C29.1926 13.8096 29.8827 12.6599 29.8828 11.21C29.8828 9.76009 29.203 8.63008 28.2031 8.62988Z" fill="#86868B"/>
<path d="M4.22266 6.17969C5.14751 6.16964 6.06538 6.34372 6.92285 6.69043V9.32031C6.09349 8.86757 5.16733 8.62092 4.22266 8.60059C3.6529 8.60065 3.29304 8.77014 3.29297 9.20996C3.29297 10.47 7.45293 9.87047 7.50293 13.2305C7.50274 15.2402 5.94248 16.3896 3.68262 16.3896C2.64895 16.3887 1.62665 16.1711 0.682617 15.75V13.0605C1.59856 13.5905 2.62621 13.8982 3.68262 13.96C4.24247 13.96 4.68239 13.7902 4.68262 13.2705C4.68262 11.9405 0.542969 12.4398 0.542969 9.33984C0.543096 7.36009 2.01293 6.1798 4.22266 6.17969Z" fill="#86868B"/>
<path d="M11.1328 6.4082H13.1924V8.74805H11.1328V12.748C11.1328 14.4077 12.8418 13.8982 13.1924 13.748V15.998C12.5941 16.2705 11.9399 16.3975 11.2832 16.3682C10.9067 16.3752 10.5322 16.3055 10.1836 16.1631C9.83498 16.0207 9.51881 15.8086 9.25488 15.54C8.99103 15.2715 8.78464 14.9516 8.64844 14.6006C8.51228 14.2496 8.44923 13.8743 8.46289 13.498V4.56836L11.1123 3.98828L11.1328 6.4082Z" fill="#86868B"/>
<path fill-rule="evenodd" clip-rule="evenodd" d="M37.5625 6.17969C40.1825 6.17969 41.5421 8.43962 41.4521 11.3096V12.3096H36.0723C36.2123 13.6196 37.1329 14.0098 38.2129 14.0098C39.1496 14.0246 40.0757 13.8116 40.9121 13.3896V15.6396C39.991 16.1353 38.9579 16.3872 37.9121 16.3701C35.2324 16.3699 33.3527 14.6596 33.3525 11.29C33.3525 8.44005 34.9425 6.17971 37.5625 6.17969ZM37.543 8.45996C36.863 8.45996 36.0928 8.99 36.0928 10.25H38.9424C38.9424 8.99026 38.2228 8.46018 37.543 8.45996Z" fill="#86868B"/>
<path d="M22.8135 6.35938V15.999H20.083V6.35938H22.8135Z" fill="#86868B"/>
<path d="M17.7979 6.27344C18.2103 6.12257 18.6643 6.12788 19.0732 6.28809V8.83789C18.7131 8.7144 18.3234 8.70397 17.957 8.80762C17.5907 8.91127 17.2645 9.12413 17.0225 9.41797V15.998H14.3428V6.28809H16.6631L16.833 7.1084C17.042 6.72187 17.3852 6.42448 17.7979 6.27344Z" fill="#86868B"/>
<path d="M22.8135 4.87891L20.083 5.44922V3.28906L22.8135 2.71875V4.87891Z" fill="#86868B"/>
</svg>
