<svg width="32" height="32" viewBox="0 0 32 32" fill="none" xmlns="http://www.w3.org/2000/svg">
<path fill-rule="evenodd" clip-rule="evenodd" d="M4.64987 15.0404C11.0923 12.0768 15.3883 10.123 17.5378 9.17903C23.675 6.48381 24.9503 6.01562 25.7815 6.00016C25.9643 5.99676 26.3731 6.0446 26.6379 6.27145C26.8614 6.46299 26.9229 6.72174 26.9524 6.90334C26.9818 7.08495 27.0185 7.49865 26.9893 7.8219C26.6568 11.5115 25.2177 20.465 24.4856 24.5974C24.1758 26.3459 23.5658 26.9322 22.9753 26.9896C21.6919 27.1143 20.7174 26.0941 19.4744 25.2338C17.5294 23.8876 16.4305 23.0496 14.5425 21.736C12.3606 20.2179 13.7751 19.3835 15.0185 18.0199C15.344 17.663 20.9985 12.2326 21.1079 11.74C21.1216 11.6784 21.1343 11.4488 21.0051 11.3275C20.8759 11.2062 20.6851 11.2477 20.5475 11.2807C20.3524 11.3274 17.2452 13.4958 11.2258 17.786C10.3439 18.4254 9.545 18.737 8.82924 18.7206C8.04018 18.7026 6.52233 18.2496 5.39397 17.8623C4.00999 17.3873 2.91003 17.1362 3.00581 16.3295C3.0557 15.9093 3.60372 15.4796 4.64987 15.0404Z" fill="#F5F5F7"/>
</svg>
