<svg width="120" height="120" viewBox="0 0 120 120" fill="none" xmlns="http://www.w3.org/2000/svg">
<path d="M30.4927 75V104" stroke="#1D1D1F" stroke-width="2" stroke-linecap="round"/>
<path d="M19.0002 92.5079L30.4925 104L41.9851 92.5073" stroke="#1D1D1F" stroke-width="2" stroke-linecap="round"/>
<path d="M89.4927 75V104" stroke="#1D1D1F" stroke-width="2" stroke-linecap="round"/>
<path d="M78.0002 92.5079L89.4925 104L100.985 92.5073" stroke="#1D1D1F" stroke-width="2" stroke-linecap="round"/>
<path d="M81 48.7143C81 60.4422 71.3641 70 59.5 70C47.6359 70 38 60.4422 38 48.7143C38 45.3 39.1904 41.7708 41.0569 38.3475C42.9204 34.9296 45.4269 31.6741 47.9819 28.8246C53.0913 23.1263 58.3131 19.1415 58.7243 18.8323C58.7244 18.8322 58.7245 18.8321 58.7247 18.832L59.5 18.2502L60.2753 18.832C60.2755 18.8321 60.2756 18.8322 60.2757 18.8323C60.6872 19.1417 65.9088 23.1239 71.0182 28.8209C73.5732 31.6696 76.0796 34.9247 77.9431 38.3431C79.8096 41.7668 81 45.2973 81 48.7143Z" stroke="#1D1D1F" stroke-width="2" stroke-linecap="round"/>
</svg>
