<svg width="120" height="120" viewBox="0 0 120 120" fill="none" xmlns="http://www.w3.org/2000/svg">
<g clip-path="url(#clip0_1221_2647)">
<path d="M60.4925 19V48M60.4925 48L49.0002 36.5079M60.4925 48L71.9851 36.5073M113.031 100.852L107.551 94.002C107.309 93.6899 102.807 88.0736 98.7424 83.3082L118.19 77.8762L107.39 74.8694L99.3066 72.6286L114.264 54.9852L106.065 56.829C105.87 56.8715 88.299 60.8143 77.6138 63.4665L75.9673 54.971L72.9851 57.3821C72.9851 57.3821 69.6805 60.0626 68.4024 61.1264C67.8958 61.5518 67.4583 61.9348 67.0668 62.2752C66.399 62.8566 65.7081 63.4523 65.4778 63.5374C65.2475 63.5374 64.1767 63.041 63.1404 62.5588C62.6684 62.3461 62.1387 62.105 61.54 61.8355C57.2337 59.9208 47.792 55.7795 47.792 55.7795L44.0729 54.1484L45.0747 66.7994C34.1247 66.8704 17.0721 67.3526 16.8879 67.3526L2 67.7639L33.2726 80.1171C26.6289 85.4356 18.7302 92.1157 18.6265 92.2008L9.6224 99.8169L52.3171 91.832L56.8652 99.8169L58.6154 99.1361C58.9608 98.9943 67.0898 95.8174 70.7283 93.9594C72.3518 93.1368 73.8832 92.7539 75.5758 92.7539C76.7963 92.7539 78.1204 92.9524 79.7439 93.3637C88.0687 95.5053 105.167 99.1503 105.329 99.1928L113.02 100.838L113.031 100.852Z" stroke="#1D1D1F" stroke-width="2" stroke-linecap="round"/>
</g>
<defs>
<clipPath id="clip0_1221_2647">
<rect width="120" height="120" fill="white"/>
</clipPath>
</defs>
</svg>
