<svg width="120" height="120" viewBox="0 0 120 120" fill="none" xmlns="http://www.w3.org/2000/svg">
<path d="M81.0044 34.9906L81.0048 34.9914C86.5327 45.1632 89.7116 57.8845 89.7116 69.855C89.7116 79.5371 86.6107 87.6855 81.3622 93.4028C76.1194 99.1138 68.6808 102.459 59.8701 102.459H59.8416C51.0309 102.459 43.5922 99.1138 38.3495 93.4028C33.1009 87.6855 30 79.5371 30 69.855C30 57.8845 33.179 45.1632 38.7068 34.9914C44.6947 23.9737 52.4482 18 59.8558 18C67.2639 18 75.0314 23.9744 81.0044 34.9906Z" stroke="#1D1D1F" stroke-width="2"/>
<path d="M45.5 25.5L62.5 32L51 44.5L60.5 55L54.5 65" stroke="#1D1D1F" stroke-width="2" stroke-linecap="round"/>
</svg>
