<svg width="40" height="32" viewBox="0 0 40 32" fill="none" xmlns="http://www.w3.org/2000/svg">
<path fill-rule="evenodd" clip-rule="evenodd" d="M31.7379 6.61176C33.0229 6.94118 34.0361 7.90588 34.3821 9.12941C35.0246 11.3647 34.9999 16.0235 34.9999 16.0235C34.9999 16.0235 34.9999 20.6588 34.3821 22.8941C34.0361 24.1176 33.0229 25.0823 31.7379 25.4118C29.3903 26 19.9999 26 19.9999 26C19.9999 26 10.6342 26 8.26193 25.3882C6.97693 25.0588 5.96376 24.0941 5.61779 22.8706C5 20.6588 5 16 5 16C5 16 5 11.3647 5.61779 9.12941C5.96376 7.90588 7.00163 6.91765 8.26193 6.58824C10.6095 6 19.9999 6 19.9999 6C19.9999 6 29.3903 6 31.7379 6.61176ZM24.8187 16L17.0098 11.7176V20.2824L24.8187 16Z" fill="#F5F5F7"/>
</svg>
