<svg width="164" height="24" viewBox="0 0 164 24" fill="none" xmlns="http://www.w3.org/2000/svg">
<path d="M35.8886 19.8214L34.5238 15.1261L33.9509 12.5969C34.0355 12.575 33.9666 12.406 33.9634 12.3809C33.4782 8.37114 30.3825 8.82188 28.373 9.51052C28.373 9.51052 28.2664 9.61068 28.2696 9.47924C28.2759 9.31646 28.279 7.69185 28.279 7.25362C28.279 7.15036 28.3698 7.11903 28.3698 7.11903C30.8802 6.01723 34.5143 6.11113 36.7493 7.2286C38.4271 8.07061 39.4037 9.34464 40.3272 13.1697C40.5807 14.2277 40.8718 15.6833 41.6793 18.8447C42.0676 20.3629 42.4776 20.9295 43.3133 20.7698C43.4167 20.7511 43.4197 20.8043 43.4197 20.895C43.4167 21.615 43.4167 22.8201 43.4167 22.9046C43.4167 23.155 43.4167 23.155 43.3321 23.1519C43.2257 23.1488 41.022 23.155 41.022 23.155C40.0172 23.1488 38.7933 23.1488 37.2032 21.759L35.8886 19.8214Z" fill="#6C6C75"/>
<path d="M35.8914 19.8221C35.9289 19.9349 35.7661 20.0475 35.6597 20.0976C32.1883 22.0728 30.9268 16.2224 34.3075 15.0956C34.4452 15.058 34.5266 15.1268 34.5266 15.1268L33.9537 12.5977C32.1476 12.9952 29.3085 13.8122 28.0784 14.9735C25.327 17.5716 26.5133 21.7566 29.5339 22.8397C31.2211 23.4438 34.7081 23.9227 37.206 21.7597L35.8914 19.8221Z" fill="#6C6C75"/>
<path d="M59.4808 6.02451C61.3934 6.02451 62.9459 4.77245 62.9459 3.22612C62.9459 1.67984 61.3934 0.427734 59.4808 0.427734C57.5651 0.427734 56.0156 1.67984 56.0156 3.22612C56.0156 4.77245 57.5651 6.02451 59.4808 6.02451Z" fill="#6C6C75"/>
<path d="M74.9518 13.6341C75.0582 13.606 75.4777 13.6153 75.4432 13.0237C75.3524 11.515 74.9768 10.4851 74.5354 9.88414C73.7028 8.75417 72.1784 8.71347 71.3927 10.3881C70.9325 11.3647 70.8418 13.1427 70.9044 14.329C70.9263 14.6984 70.9857 14.7172 71.3238 14.6358L71.5962 16.8676C71.4772 16.9302 71.3301 16.877 71.5023 17.3372C72.5885 20.2576 74.1473 20.6552 76.232 20.5362C77.312 20.4767 78.5202 19.9133 78.9458 19.6911C79.3684 19.4657 79.3027 19.7349 79.3027 19.8945V21.8697C79.3027 22.1889 79.3309 22.3017 78.7675 22.5051C75.919 23.5475 72.1784 23.7947 69.2735 22.3642C66.832 21.1623 64.6096 17.9914 64.8005 14.5325C65.1041 9.02651 68.5255 6.04968 73.6559 6.21556C77.6969 6.34705 80.7864 9.31132 81.162 13.6685C81.1777 13.8501 81.1745 14.1287 81.0024 14.2257L74.9518 13.6341Z" fill="#6C6C75"/>
<path d="M74.9483 13.6328C74.2345 13.8488 71.3203 14.6345 71.3203 14.6345L71.5927 16.8663C71.7085 16.8006 80.9989 14.2245 80.9989 14.2245L74.9483 13.6328Z" fill="#6C6C75"/>
<path d="M24.8942 21.877C24.891 22.6314 25.0663 22.9193 25.1257 23.0445C25.1759 23.1573 25.0256 23.1416 25.0256 23.1416H23.855H18.9749C18.9749 23.1416 18.856 23.1478 18.8935 23.0445C18.9656 22.8411 19.1127 22.4749 19.1127 21.877L19.1064 21.0944V13.6571V12.2579C19.1033 11.732 18.7778 10.602 17.5037 10.5989C16.4488 10.6083 15.466 11.5661 15.4629 12.8933V15.6698L15.4598 21.2102C15.4598 21.2102 15.4629 21.8488 15.4629 21.877C15.4598 22.6314 15.6351 22.9193 15.6945 23.0445C15.7446 23.1573 15.5944 23.1416 15.5944 23.1416H14.4267H9.54365C9.54365 23.1416 9.42472 23.1478 9.46226 23.0445C9.53429 22.8411 9.67825 22.4749 9.6814 21.877V21.4607V13.6665V12.2673C9.67825 11.7383 9.35269 10.6114 8.07561 10.6051C7.02387 10.6146 6.03785 11.5724 6.03785 12.8996V13.6164V21.4294L6.03164 21.877C6.03164 22.6314 6.20693 22.9193 6.26319 23.0445C6.31334 23.1573 6.16623 23.1416 6.16623 23.1416H4.99547H0.115525C0.115525 23.1416 -0.00655739 23.1478 0.0309843 23.0445C0.106163 22.8411 0.246969 22.4749 0.253273 21.877V21.3511C0.253273 19.4073 0.250121 10.8712 0.246969 10.0855C0.253273 9.57218 0.0904971 9.20598 0.0122613 9.00561C-0.0347373 8.90235 0.0685263 8.8554 0.0685263 8.8554C0.0685263 8.8554 2.29419 7.85687 5.94079 6.17279C5.97833 6.15717 6.041 6.17905 6.03785 6.24482V7.71286V8.97433C6.03785 9.0432 6.11303 9.08075 6.16929 9.02128C6.20062 8.99 6.23817 8.93989 6.28832 8.88358C8.28844 5.83473 14.5144 5.34019 15.4942 8.99C15.513 9.05257 15.5818 9.04631 15.6225 8.99C16.8558 7.33725 18.0923 6.5046 20.6339 6.5046C25.6047 6.5046 24.8879 10.7429 24.8847 13.3535L24.8879 21.0944L24.8942 21.877Z" fill="#6C6C75"/>
<path d="M50.8039 21.8901C50.8007 22.6414 50.976 22.9325 51.0324 23.0577C51.0856 23.1704 50.9353 23.1548 50.9353 23.1548H49.4547H44.5747C44.5747 23.1548 44.4526 23.1579 44.4902 23.0577C44.5622 22.8511 44.7062 22.488 44.7093 21.8901L44.7125 21.4394C44.7125 19.5019 44.7093 11.2287 44.7093 10.443C44.7093 10.0048 44.4151 9.18782 44.3587 9.04071C44.3212 8.96247 44.4433 8.93114 44.4433 8.93114C44.4433 8.93114 47.0789 7.58518 50.7099 5.90426C50.7475 5.88859 50.8069 5.91051 50.8069 5.97624V7.61021C50.8069 7.82934 50.8289 8.51484 50.8289 8.60563C50.8289 8.67761 50.904 8.71516 50.9572 8.65569C50.9885 8.62125 51.0292 8.5743 51.0761 8.51484C52.4315 5.8542 54.5851 5.93869 56.2222 6.18286C56.4319 6.21414 56.4037 6.28302 56.3474 6.55847C56.241 7.08434 55.5179 10.0612 55.4553 10.2803C55.4052 10.465 55.3551 10.5463 55.1329 10.4994C53.0763 10.0674 50.8069 10.7373 50.8069 13.3009V13.6703C50.8069 15.539 50.8069 20.1091 50.8101 21.4426L50.8039 21.8901Z" fill="#6C6C75"/>
<path d="M62.7268 21.8911C62.7237 22.6423 62.899 22.9335 62.9553 23.0586C63.0086 23.1714 62.8583 23.1557 62.8583 23.1557H61.3683H56.4883C56.4883 23.1557 56.3662 23.1619 56.4006 23.0586C56.4758 22.8521 56.6198 22.489 56.6229 21.8911L56.6261 21.8034V9.11366C56.6261 8.80063 56.6261 8.79747 56.8483 8.69731C56.9641 8.64411 56.9235 8.66288 56.9235 8.66288C56.9235 8.66288 59.0269 7.62365 62.5359 5.97091C62.5734 5.95214 62.7205 5.97716 62.7174 6.04293C62.7174 6.54373 62.7237 20.4856 62.7268 21.8316V21.8911Z" fill="#6C6C75"/>
<path d="M99.6678 20.2658C98.206 21.0108 96.0243 21.2518 94.7221 19.5959C93.4262 17.9463 92.7876 16.5033 92.7907 14.14C92.7939 8.7686 96.522 8.06429 99.3516 9.64505V6.88421C97.7552 6.07348 95.6486 5.93263 94.0648 6.09856C89.3475 6.6025 86.593 10.5559 86.5898 15.054C86.5867 19.9559 89.7169 25.8219 99.6678 23.0955V20.2658Z" fill="#6C6C75"/>
<path d="M107.485 21.2696C107.485 21.2696 107.463 -0.040788 107.472 0.0687804C107.472 0.0687804 103.074 2.10028 100.773 3.19898C101.002 3.38678 101.484 4.20692 101.484 6.90825V13.7477C101.487 15.7041 101.484 19.4541 101.456 22.4215C101.453 22.747 101.246 23.2009 101.246 23.2323H107.891C107.826 23.2323 107.485 21.2696 107.485 21.2696Z" fill="#6C6C75"/>
<path d="M118.728 19.9979C118.766 20.1169 118.703 20.1544 118.593 20.2108C117.836 20.6928 116.537 20.7993 115.773 20.0887C115.053 19.2373 114.678 18.2638 114.981 17.0461C115.222 16.298 115.989 14.9927 117.269 14.7642L116.859 12.3164C116.862 12.3603 116.859 12.3571 116.731 12.3853C116.343 12.4823 116.136 12.5199 115.463 12.6325C114.045 12.8673 112.443 13.3494 111.109 14.3886C107.306 17.3435 109.09 21.6913 112.18 22.9685C113.983 23.7135 117.166 24.1485 119.795 21.9543L118.728 19.9979Z" fill="#6C6C75"/>
<path d="M118.724 19.9983L117.312 14.7865C117.312 14.7865 117.312 14.749 117.265 14.7646L116.855 12.3168C116.574 7.94391 113.061 8.34775 111.111 9.07704C111.111 9.07704 111.002 9.18036 111.008 9.04261C111.011 8.87362 111.018 7.18644 111.018 6.73255C111.014 6.62298 111.108 6.5948 111.108 6.5948C113.591 5.50552 117.384 5.65263 119.575 6.75132C121.497 7.71231 122.452 9.47773 122.837 10.9959C122.837 10.9959 124.562 18.8652 124.756 19.7166C124.912 20.399 125.357 20.9937 126.052 20.9906C126.327 20.9906 126.365 21.0438 126.368 21.3286C126.371 22.0173 126.374 23.0784 126.371 23.2255C126.368 23.404 126.355 23.4697 126.221 23.4697C126.111 23.4697 123.836 23.4728 123.836 23.4728C122.612 23.4665 121.604 23.4634 119.791 21.9547L118.724 19.9983Z" fill="#6C6C75"/>
<path d="M130.991 5.8065C132.976 5.8065 134.585 4.50749 134.585 2.9017C134.585 1.29906 132.976 0 130.991 0C129.003 0 127.395 1.29906 127.395 2.9017C127.395 4.50749 129.003 5.8065 130.991 5.8065Z" fill="#6C6C75"/>
<path d="M134.118 21.8904V22.2316C134.118 22.7262 134.341 23.0986 134.394 23.2301C134.397 23.2458 134.378 23.2551 134.378 23.2551H132.685H127.501C127.501 23.2551 127.479 23.2458 127.485 23.2301C127.532 23.108 127.758 22.7199 127.758 22.2316V21.8622C127.758 19.8432 127.761 9.92678 127.761 8.69349C127.761 8.38986 127.902 8.37735 127.902 8.37735C127.902 8.37735 130.228 7.18786 134.015 5.43806C134.053 5.41929 134.118 5.44121 134.115 5.51009C134.115 6.0328 134.118 20.4943 134.118 21.8904Z" fill="#6C6C75"/>
<path d="M147.638 10.3759C146.141 10.354 145.766 10.2601 144.977 10.5387C143.994 10.9143 143.318 11.6969 143.299 12.8895V13.6126V21.9013V22.2331C143.299 22.7151 143.515 23.0783 143.565 23.2066C143.571 23.2191 143.553 23.2285 143.553 23.2285H141.909H136.87C136.87 23.2285 136.851 23.2191 136.854 23.2035C136.901 23.0876 137.12 22.7089 137.12 22.2331V21.8763V10.0473C137.086 9.59967 136.904 9.05813 136.851 8.91728C136.813 8.839 136.935 8.81082 136.935 8.81082C136.935 8.81082 139.518 7.61512 143.199 5.91853C143.233 5.89976 143.299 5.92168 143.296 5.99055V7.47111C143.296 7.69025 143.321 8.38826 143.321 8.48216C143.321 8.55103 143.396 8.58857 143.453 8.52911C143.484 8.49467 143.521 8.44772 143.571 8.38826C145.055 5.63997 147.478 5.9874 148.711 6.18146C148.924 6.2128 148.893 6.28162 148.836 6.56022C148.727 7.09235 148.029 9.93143 147.966 10.1537C147.913 10.3415 147.866 10.3822 147.638 10.3759Z" fill="#6C6C75"/>
<path d="M157.791 14.0045C157.894 13.9732 158.313 13.9826 158.279 13.391C158.188 11.8822 157.812 10.8555 157.371 10.2545C156.538 9.12138 155.014 9.08068 154.228 10.7585C153.771 11.732 153.681 13.513 153.743 14.6963C153.762 15.0656 153.824 15.0844 154.159 15.0062L154.432 17.2349C154.316 17.3006 154.166 17.2474 154.338 17.7075C155.424 20.628 156.986 21.0224 159.068 20.9066C160.148 20.8471 161.356 20.2805 161.781 20.0583C162.207 19.8329 162.141 20.1052 162.141 20.2649V22.2401C162.141 22.5562 162.166 22.6689 161.606 22.8755C158.755 23.9147 155.014 24.162 152.112 22.7315C149.671 21.5326 147.448 18.3586 147.636 14.9028C147.94 9.39372 151.364 6.41689 156.491 6.58593C160.536 6.71742 163.622 9.67858 163.998 14.0358C164.013 14.2174 164.013 14.496 163.841 14.593L157.791 14.0045Z" fill="#6C6C75"/>
<path d="M157.787 14.0029C157.074 14.2158 154.156 15.0046 154.156 15.0046L154.428 17.2333C154.544 17.1707 163.838 14.5914 163.838 14.5914L157.787 14.0029Z" fill="#6C6C75"/>
</svg>
