<svg width="99" height="25" viewBox="0 0 99 25" fill="none" xmlns="http://www.w3.org/2000/svg">
<path d="M56.1217 8.14889C56.1217 5.23139 56.1716 2.51509 56.3215 0L48.6754 1.45875V2.16298L49.425 2.26358C49.9748 2.31388 50.3246 2.51509 50.5245 2.8169C50.7244 3.16901 50.8743 3.67203 50.9743 4.42656C51.0742 5.88531 51.1742 9.20523 51.1242 14.4366C51.1242 19.6177 51.0742 22.8873 50.9743 24.1449C53.7229 24.7485 55.8718 25 57.471 25C60.4695 25 62.8183 24.1449 64.5174 22.3843C66.2166 20.674 67.1161 18.2596 67.1161 15.2918C67.1161 12.9276 66.4664 10.9658 65.1671 9.40644C63.8677 7.84708 62.2186 7.09256 60.2696 7.09256C58.9702 7.09256 57.6209 7.44467 56.1217 8.14889ZM56.2716 23.6418C56.1716 22.0322 56.0717 17.2032 56.0717 9.30583C56.5215 9.15493 57.1212 9.05433 57.8708 9.05433C59.0702 9.05433 60.0197 9.65795 60.7193 10.9155C61.419 12.173 61.7688 13.6821 61.7688 15.5936C61.7688 17.9577 61.369 19.8692 60.5694 21.4789C59.7698 23.0382 58.7703 23.8431 57.5209 23.8431C57.1211 23.7425 56.7213 23.6922 56.2716 23.6418ZM19.9899 0.503018H0V1.50905L1.04947 1.60966C1.84907 1.76056 2.39879 2.06237 2.74861 2.51509C3.09843 3.01811 3.29833 3.82294 3.34831 4.92958C3.74811 10.3622 3.74811 15.4427 3.34831 20.1207C3.24836 21.2274 3.04846 22.0322 2.74861 22.5352C2.39879 23.0382 1.84907 23.34 1.04947 23.4406L0 23.5915V24.5976H12.8935V23.5915L11.5442 23.4909C11.2149 23.4632 10.8946 23.3687 10.6026 23.2131C10.3106 23.0575 10.0529 22.844 9.84503 22.5855C9.4952 22.0825 9.29531 21.2777 9.24533 20.171C9.09541 18.159 8.99546 15.8451 8.99546 13.2797L11.6941 13.33C13.1434 13.3803 14.1429 14.4869 14.6426 16.7002H15.6421V8.50101H14.6426C14.1429 10.664 13.1933 11.7706 11.6941 11.8209L8.99546 11.8712C8.99546 7.34406 9.09541 4.12475 9.24533 2.16298H13.1933C15.9919 2.16298 17.891 3.97384 18.9904 7.59557L20.1898 7.24346L19.9899 0.503018ZM17.6411 15.996C17.6411 18.6117 18.3907 20.7746 19.84 22.4849C21.2892 24.1952 23.4382 25 26.1368 25C28.8354 25 31.0343 24.1449 32.6335 22.3843C34.2327 20.674 34.9823 18.5111 34.9823 15.8954C34.9823 13.2797 34.2327 11.1167 32.7834 9.40644C31.3342 7.69618 29.1853 6.89135 26.4866 6.89135C23.788 6.89135 21.5891 7.74648 19.9899 9.50704C18.3907 11.2173 17.6411 13.3803 17.6411 15.996ZM28.7855 10.2616C29.3852 11.7203 29.635 13.6318 29.635 15.9457C29.635 21.2777 28.5356 23.8934 26.3867 23.8934C25.2872 23.8934 24.4377 23.1388 23.838 21.6298C23.2383 20.1207 22.9884 18.2093 22.9884 15.9457C22.9884 10.664 24.0878 8.04829 26.2367 8.04829C27.3362 7.99799 28.1858 8.75251 28.7855 10.2616ZM71.0141 22.4849C72.6633 24.1449 74.7622 25 77.261 25C78.8102 25 80.1595 24.6982 81.3589 24.0443C82.5583 23.4406 83.5078 22.6861 84.1575 21.7807L83.6577 21.1771C82.5583 22.0322 81.3089 22.4346 79.8597 22.4346C77.8607 22.4346 76.3115 21.7807 75.262 20.4225C74.1625 19.0644 73.6628 17.3541 73.7627 15.1408H84.4573C84.4573 12.7264 83.8576 10.7646 82.6083 9.20523C81.3589 7.69618 79.6098 6.94165 77.3609 6.94165C74.5623 6.94165 72.4134 7.84708 70.8642 9.60765C69.315 11.3682 68.5654 13.5312 68.5654 16.0966C68.5654 18.7123 69.365 20.8249 71.0141 22.4849ZM74.7123 9.85915C75.262 8.65191 75.9616 8.04829 76.9111 8.04829C78.4104 8.04829 79.16 9.95976 79.16 13.833L73.8627 13.9336C73.9127 12.4245 74.1625 11.0664 74.7123 9.85915ZM97.9005 7.84708C96.5512 7.24346 94.8521 6.89135 92.8031 6.89135C90.7042 6.89135 89.055 7.44467 87.8056 8.50101C86.5563 9.55734 85.9066 10.8652 85.9066 12.4245C85.9066 13.7827 86.3064 14.839 87.056 15.5936C87.8056 16.3481 89.005 17.002 90.5543 17.5553C91.9536 18.0583 92.953 18.5614 93.4528 19.0141C93.9525 19.5171 94.2524 20.0704 94.2524 20.8249C94.2524 21.5292 94.0025 22.1831 93.4528 22.6861C92.953 23.2394 92.2534 23.4909 91.3539 23.4909C89.155 23.4909 87.5058 21.8813 86.3564 18.662L85.5068 18.9135L85.7067 23.9437C87.5058 24.6479 89.5048 25 91.7037 25C94.0025 25 95.7516 24.497 97.051 23.4406C98.3503 22.4346 99 20.9759 99 19.165C99 17.9577 98.7001 16.9517 98.0505 16.1972C97.4008 15.4427 96.3513 14.7887 94.8521 14.1851C93.2029 13.5815 92.0535 13.0282 91.4538 12.5252C90.8541 12.0221 90.5543 11.4185 90.5543 10.664C90.5543 9.90946 90.7542 9.30583 91.2039 8.80282C91.6537 8.2998 92.2034 8.09859 92.9031 8.09859C94.9021 8.09859 96.3513 9.55734 97.2509 12.4245L98.1004 12.173L97.9005 7.84708ZM49.8248 7.39437C49.1252 7.04225 48.3756 6.89135 47.526 6.89135C46.6764 6.89135 45.8269 7.24346 44.8773 7.94769C43.9278 8.65191 43.2282 9.60765 42.6784 10.9155L42.7284 6.89135L35.1323 8.4004V9.10463L35.8819 9.15493C36.8314 9.25553 37.3811 10.0101 37.4811 11.3682C37.7809 14.4869 37.7809 17.8068 37.4811 21.328C37.3811 22.6861 36.8314 23.3903 35.8819 23.5412L35.1323 23.6418V24.5976H45.7269V23.6418L44.3776 23.5412C43.4281 23.4406 42.8783 22.6861 42.7784 21.328C42.4785 18.4105 42.4286 15.2917 42.6784 12.0724C42.9783 11.5694 43.628 11.2676 44.6275 11.167C45.627 11.0664 46.7764 11.3682 47.9758 12.0724L49.8248 7.39437Z" fill="#6C6C75"/>
</svg>
