<svg width="148" height="36" viewBox="0 0 148 36" fill="none" xmlns="http://www.w3.org/2000/svg">
<path fill-rule="evenodd" clip-rule="evenodd" d="M26.4855 33.5994C26.2036 34.7282 26.1648 34.8418 25.8788 34.8418H22.6643V35.0628H29.9448V34.8418H26.6123C26.3968 34.8418 26.4329 34.6887 26.6949 33.657L28.9344 24.9618H37.7993L40.5058 34.8418H36.9045V35.0628H49.019V34.8418H45.2528L35.2064 0H35.1454L26.4855 33.5994ZM33.2203 8.30844L37.7305 24.7419H28.9978L33.2203 8.30844ZM130.828 17.6789H133.599C136.054 17.6789 139.675 18.7362 139.675 23.0323V30.8119C139.675 33.9953 141.432 36 144.531 36C147.788 36 147.738 32.711 147.738 30.3384V27.8379H147.518V30.3384C147.518 33.0372 147.198 35.3808 145.609 35.3808C144.201 35.3808 143.898 34.5076 143.898 30.846V23.0323C143.898 19.4168 140.967 18.0917 136.442 17.5673C142.078 16.8968 144.201 13.2972 144.201 9.31686C144.201 3.42928 141.482 0.954451 134.48 0.954451L123.381 0.95209V1.17333H126.296C126.506 1.17333 126.606 1.23235 126.606 1.35175V34.6621C126.606 34.7821 126.506 34.8418 126.296 34.8418H123.381V35.0628H133.588V34.8418H131.136C130.926 34.8418 130.828 34.7821 130.828 34.6621V17.6789ZM130.828 1.17536H133.819C138.427 1.17536 139.731 4.68018 139.731 9.31686C139.731 13.6581 138.427 17.458 133.819 17.458H130.828V1.17536ZM56.552 34.6678C56.516 34.7471 56.5568 34.8418 56.7271 34.8418L64.6794 34.8439C67.1276 34.8439 70.2877 31.223 70.2877 19.5555V18.3406H70.5089V35.0641H51.5218L65.9063 1.34567C65.9414 1.26743 65.9003 1.17333 65.7303 1.17333L57.2873 1.17536C55.0711 1.17536 51.853 5.22115 51.853 16.4644V17.6789H51.6321V0.954451H70.9508L56.552 34.6678ZM9.54316 1.17536C14.1522 1.17536 16.0287 4.68018 16.0287 9.31686C16.0287 13.6581 14.1522 17.1265 9.54316 17.1265H7.44606V1.17536H9.54316ZM0 0.95209V1.17333H2.91462C3.1254 1.17333 3.22389 1.23235 3.22389 1.35175V34.6621C3.22389 34.7821 3.1254 34.8418 2.91462 34.8418H0V35.0628L10.8683 35.0641C17.8685 35.0641 21.6033 32.1481 21.6033 26.2622C21.6033 22.1861 19.3959 18.0374 12.4281 17.2111C18.347 16.6577 20.3892 12.9401 20.3892 9.31686C20.3892 4.01814 17.2064 0.954451 10.2059 0.954451L0 0.95209ZM9.54316 17.3474C14.7404 17.3474 16.8017 20.8893 16.8017 26.2622C16.8017 30.8976 14.9616 34.8439 10.647 34.8439L7.75533 34.8418C7.54455 34.8418 7.44606 34.7821 7.44606 34.6621V17.3447L9.54316 17.3474ZM76.6043 33.5994C76.321 34.7282 76.2822 34.8418 75.9969 34.8418H72.7824V35.0628H80.0636V34.8418H76.7301C76.5159 34.8418 76.551 34.6887 76.8144 33.657L79.0528 24.9618H87.9177L90.6249 34.8418H87.0223V35.0628H99.1377V34.8418H95.3702L85.3245 0H85.2628L76.6043 33.5994ZM83.3391 8.30844L87.8479 24.7419H79.1152L83.3391 8.30844Z" fill="#6C6C75"/>
<path fill-rule="evenodd" clip-rule="evenodd" d="M100.786 33.5994C100.503 34.7282 100.465 34.8418 100.179 34.8418H96.9643V35.0628H104.245V34.8418H100.912C100.698 34.8418 100.733 34.6887 100.996 33.657L103.235 24.9618H112.1L114.806 34.8418H111.204V35.0628H123.319V34.8418H119.553L109.507 0H109.446L100.786 33.5994ZM107.521 8.30844L112.031 24.7419H103.297L107.521 8.30844ZM92.9951 4.48255C92.9951 4.49604 93.0076 4.5011 93.0312 4.5011H93.5233V4.57968H91.8433V4.5011H92.2821C92.3067 4.5011 92.3175 4.49604 92.3175 4.48255V2.78174H90.7132V4.48255C90.7132 4.49604 90.7243 4.5011 90.7483 4.5011H91.187V4.57968H89.5078V4.5011H89.9999C90.0238 4.5011 90.0349 4.49604 90.0349 4.48255V1.145C90.0349 1.13286 90.0238 1.12713 89.9999 1.12713H89.5078V1.04821H91.187V1.12713H90.7483C90.7243 1.12713 90.7132 1.13286 90.7132 1.145V2.70383H92.3175V1.145C92.3175 1.13286 92.3067 1.12713 92.2821 1.12713H91.8433V1.04821H93.5233V1.12713H93.0312C93.0076 1.12713 92.9951 1.13286 92.9951 1.145V4.48255ZM97.6594 3.033C97.505 3.033 97.4014 2.9615 97.4014 2.84109C97.4014 2.73216 97.4669 2.73587 97.4669 2.65594C97.4669 2.57499 97.4149 2.5379 97.3316 2.5379C97.2456 2.5379 97.0922 2.56656 96.9758 2.92001V4.48255C96.9758 4.49604 96.9866 4.5011 97.0109 4.5011H97.3124V4.57968H96.13V4.5011H96.4304C96.4547 4.5011 96.4655 4.49604 96.4655 4.48255V2.55375C96.4655 2.54194 96.4547 2.5352 96.4304 2.5352H96.13V2.45662H96.961L96.9758 2.47179V2.8013C97.0645 2.52677 97.2561 2.41345 97.4814 2.41345C97.7555 2.41345 97.9336 2.55746 97.9336 2.78039C97.9336 2.92102 97.825 3.033 97.6594 3.033ZM102.094 4.62251C102.479 4.62251 102.789 4.436 102.996 4.15034L102.936 4.10245C102.743 4.37597 102.484 4.54528 102.094 4.54528C101.952 4.54528 101.837 4.5183 101.739 4.43128C101.577 4.28592 101.527 4.11561 101.527 3.51865C101.527 3.47447 101.527 3.46233 101.528 3.42186H103.041L103.056 3.40803C103.056 3.005 102.778 2.41345 102.094 2.41345C101.464 2.41345 100.99 2.90888 100.99 3.51865C100.99 4.12741 101.464 4.62251 102.094 4.62251ZM102.375 2.60636C102.491 2.73722 102.529 2.93957 102.538 3.34328H101.53C101.542 2.93957 101.593 2.73722 101.739 2.60636C101.837 2.51901 101.952 2.49203 102.094 2.49203C102.218 2.49203 102.297 2.51901 102.375 2.60636ZM94.5688 4.52538C94.8392 4.52538 95.0146 4.3328 95.0146 4.14866V3.41376C94.8888 3.48628 94.7064 3.48628 94.5452 3.51528C94.364 3.54833 94.1698 3.6431 94.1698 4.10043C94.1698 4.4495 94.3984 4.52538 94.5688 4.52538ZM93.9337 2.84514C93.9337 2.66875 94.156 2.41345 94.5853 2.41345C95.2143 2.41345 95.5256 2.69067 95.5256 3.31326V4.32606C95.5256 4.44511 95.5826 4.49435 95.6655 4.49435C95.7627 4.49435 95.8406 4.41408 95.8615 4.36552L95.9131 4.41678C95.8814 4.50514 95.7202 4.62251 95.5151 4.62251C95.2824 4.62251 95.0777 4.48794 95.0416 4.3011C94.9674 4.51391 94.7637 4.62251 94.4706 4.62251C93.9846 4.62251 93.6723 4.45321 93.6723 4.10043C93.6723 3.5797 94.2285 3.45862 94.4423 3.44142C94.7438 3.41612 95.0146 3.39623 95.0146 3.28965V2.99927C95.0146 2.6438 94.8595 2.49203 94.5853 2.49203C94.448 2.49203 94.3627 2.55476 94.3627 2.7018C94.3627 2.78545 94.4062 2.81108 94.4062 2.89269C94.4062 2.98409 94.3337 3.07111 94.1617 3.07111C93.9981 3.07111 93.9337 2.95779 93.9337 2.84514ZM99.8523 2.604C99.7609 2.51901 99.6371 2.49203 99.5049 2.49203C99.3221 2.49203 99.1542 2.61277 99.0378 2.74902V4.23331C99.108 4.41004 99.3113 4.54528 99.5049 4.54528C99.6371 4.54528 99.7609 4.51897 99.8523 4.43297C100.003 4.29031 100.105 4.04175 100.105 3.53147C100.105 3.02085 100.003 2.74632 99.8523 2.604ZM100.624 3.53147C100.624 4.08289 100.155 4.62251 99.5049 4.62251C99.3059 4.62251 99.1542 4.4984 99.0378 4.37833V6.02316C99.0378 6.03463 99.05 6.04036 99.0736 6.04036H99.3741V6.11894H98.1926V6.04036H98.4928C98.5167 6.04036 98.5279 6.03463 98.5279 6.02316V2.55375C98.5279 2.54194 98.5167 2.5352 98.4928 2.5352H98.1926V2.45662H99.0233L99.0378 2.47179V2.661C99.1542 2.53992 99.3059 2.41345 99.5049 2.41345C100.155 2.41345 100.624 2.97937 100.624 3.53147ZM107.073 2.4728C107.129 2.4728 107.16 2.44987 107.167 2.42829H107.252V2.95441H107.167C107.167 2.64852 106.892 2.49203 106.633 2.49203C106.364 2.49203 106.234 2.61277 106.234 2.80332C106.234 3.04851 106.41 3.1733 106.81 3.28527C107.228 3.40297 107.504 3.60735 107.504 3.9264C107.504 4.3301 107.178 4.62251 106.656 4.62251C106.346 4.62251 106.212 4.47816 106.051 4.47816C106.015 4.47695 105.98 4.48665 105.95 4.50598C105.92 4.52532 105.896 4.55337 105.882 4.58642H105.796L105.826 3.88661H105.912C105.897 4.25355 106.241 4.54528 106.656 4.54528C106.97 4.54528 107.147 4.4016 107.147 4.13416C107.147 3.86738 106.937 3.76114 106.554 3.64411C106.179 3.53079 105.918 3.37835 105.918 3.04851C105.918 2.65762 106.296 2.41345 106.633 2.41345C106.852 2.41345 106.872 2.4728 107.073 2.4728ZM105.515 1.73521C105.515 1.59289 105.636 1.47687 105.785 1.47687C105.946 1.47687 106.066 1.59424 106.066 1.76624C106.066 2.0202 105.837 2.31834 105.522 2.50754L105.472 2.45088C105.699 2.31935 105.863 2.15713 105.959 1.92678C105.918 1.97298 105.86 1.99423 105.785 1.99423C105.636 1.99423 105.515 1.87889 105.515 1.73521ZM104.833 3.033C104.679 3.033 104.575 2.9615 104.575 2.84109C104.575 2.73216 104.64 2.73587 104.64 2.65594C104.64 2.57499 104.588 2.5379 104.504 2.5379C104.418 2.5379 104.265 2.56656 104.149 2.92001V4.48255C104.149 4.49604 104.159 4.5011 104.183 4.5011H104.484V4.57968H103.302V4.5011H103.604C103.627 4.5011 103.639 4.49604 103.639 4.48255V2.55375C103.639 2.54194 103.627 2.5352 103.604 2.5352H103.302V2.45662H104.134L104.149 2.47179V2.8013C104.238 2.52677 104.429 2.41345 104.656 2.41345C104.927 2.41345 105.108 2.55746 105.108 2.78039C105.108 2.92102 104.997 3.033 104.833 3.033Z" fill="#6C6C75"/>
</svg>
