<svg width="131" height="41" viewBox="0 0 131 41" fill="none" xmlns="http://www.w3.org/2000/svg">
<path d="M13.9329 0.325278C13.9344 0.319068 14.1455 0.328381 14.1455 0.328381L14.7106 13.9698L14.5212 13.9822C14.1269 12.4344 13.0635 0.437052 8.91844 0.437052C5.73281 0.437052 4.66317 15.1481 4.66317 20.0771C4.66317 26.4608 5.45026 39.8538 9.02556 39.8538C10.7488 39.8538 11.6849 36.901 11.6849 33.0028V20.5568H9.77229V20.0678H17.4942V20.5568H15.5567V40.0587C15.5521 40.0572 15.3363 40.0649 15.3347 40.0603C15.0553 39.2483 15.0149 37.5795 13.7574 37.5795C12.3649 37.5795 10.8714 40.4655 8.93552 40.4593C2.53165 40.4391 0.300781 28.6078 0.300781 20.0787C0.300781 13.0135 2.88095 0.0209961 8.92931 0.0209961C9.94306 0.0209961 10.6556 0.283361 11.4645 1.45236C12.0575 2.31086 13.1784 2.50492 13.6581 1.40733C13.804 1.07666 13.8708 0.64974 13.9329 0.325278Z" fill="#6C6C75"/>
<path d="M100.802 39.3443V1.03751H99.0879V0.571777H106.383V1.03751H104.661L104.674 39.3443H106.383V39.8178H99.0879V39.3443H100.802Z" fill="#6C6C75"/>
<path d="M79.6216 39.3411H84.1936C86.3375 39.2573 88.9643 37.2547 88.9643 31.6705C88.9643 30.6055 88.9767 29.4908 88.9767 28.3777L89.3834 28.3793V39.81L75.5371 39.8178L84.9356 1.04062H80.5515C77.7788 1.04062 76.2481 5.23689 76.2481 9.09629C76.2481 10.0852 76.2186 12.0025 76.2186 12.0025L75.8321 12.0071V0.571777H89.2841L79.6216 39.3411Z" fill="#6C6C75"/>
<path d="M27.6446 0.575195L35.8027 0.578299C39.7087 0.578299 42.2407 4.91895 42.2407 10.1305C42.2407 15.325 40.1092 20.164 36.8242 20.164C36.3849 20.164 36.4252 20.4279 36.8242 20.4279C38.7927 20.4279 40.2707 22.679 40.5687 23.2782C41.7719 25.6985 40.9429 36.8405 42.1476 37.9396C43.1644 38.8695 43.9096 37.4164 44.0431 37.1913L44.1673 37.2814C44.1487 37.3838 43.2762 40.2574 41.0795 40.2574C39.2538 40.2574 38.3285 38.0141 38.0677 36.6091C37.6408 34.3208 37.779 27.3224 37.5461 25.9143C37.3427 24.6879 36.7916 21.0241 35.0684 20.7043C34.2999 20.5615 34.0578 20.5615 33.1977 20.5661C33.193 20.5661 33.1992 39.3384 33.1992 39.3384H34.9194V39.8196H27.4102V39.3384H29.3383L29.3321 1.04714H27.6446V0.575195ZM33.1977 1.04714V20.0755C33.9926 20.0709 35.3075 20.1609 36.6736 18.3989C37.9435 16.7611 38.4465 12.6331 38.4465 9.55613C38.4465 6.27424 36.804 1.03783 34.6943 1.03783L33.1977 1.04714Z" fill="#6C6C75"/>
<path d="M52.543 39.3368L59.9218 0.0209961L66.7418 39.3368L68.2927 39.3415V39.8165H61.198V39.3337H62.752L60.8207 28.3688H55.1698L53.1656 39.343H55.1589V39.8134H50.8633V39.3477L52.543 39.3368ZM55.2769 27.8689H60.7508L58.1132 12.5182L55.2769 27.8689Z" fill="#6C6C75"/>
<path d="M115.251 39.3368L122.63 0.0209961L129.45 39.3368L130.999 39.3415V39.8165H123.906V39.3337H125.459L123.527 28.3688H117.876L115.872 39.343H117.864V39.8119H113.568V39.3461L115.251 39.3368ZM117.984 27.8689H123.457L120.82 12.5182L117.984 27.8689Z" fill="#6C6C75"/>
</svg>
