<svg width="69" height="36" viewBox="0 0 69 36" fill="none" xmlns="http://www.w3.org/2000/svg">
<path d="M36.238 17.9702C36.238 17.0235 36.2328 16.0914 36.0916 15.2688H18.9967V23.4918H24.071C24.071 24.3137 21.7255 26.0034 18.2064 26.0034C14.3351 26.0034 9.95211 22.9598 9.86452 18.063C9.77306 12.9896 14.1622 9.67159 18.2064 9.81606C21.4908 9.93339 22.7452 10.8752 24.5768 12.678C24.5768 12.678 35.2345 12.6861 35.5137 12.6861C35.196 11.4647 34.409 9.61923 33.0625 7.70877C32.9501 7.54975 32.8353 7.38944 32.7141 7.23043C30.0215 3.64641 25.3431 0.00777566 18.0739 1.87494e-05C9.53292 -0.0119398 2.94084 5.69811 0.766964 12.6894C0.741108 12.7737 0.716221 12.8581 0.690688 12.9431C0.690688 12.9469 0.689072 12.9528 0.687456 12.956C0.241111 14.5203 0 16.1712 0 17.8761C0.0161602 19.5086 0.228182 21.0713 0.613442 22.5458C1.98512 27.6466 5.55524 31.8564 10.2556 34.1143C10.2934 34.132 10.3309 34.1505 10.3697 34.1673C10.3939 34.1802 10.4188 34.1896 10.4411 34.2009C12.8131 35.2797 15.4776 35.8806 18.3066 35.9029C24.3053 35.8544 29.611 32.919 32.8799 28.4268C32.9468 28.3341 36.238 23.5733 36.238 17.9702Z" fill="#6C6C75"/>
<path d="M63.247 28.3474C63.247 28.3474 66.5786 24.0928 66.5912 18.4276C66.6177 7.30196 58.8243 0.12165 47.952 0.10549C41.6534 0.0957936 35.8464 3.44581 32.8726 7.46518C30.2275 11.0411 29.7915 14.0204 29.7915 16.1875C29.6661 18.8837 29.9311 20.1587 29.9311 20.1587C30.3151 22.9661 31.4049 25.7275 33.0782 28.136C36.2446 32.6955 41.5022 35.9996 48.0144 35.9996C52.3363 36.0003 55.3935 33.9702 55.9459 33.6767L57.0913 35.0032H68.1617L63.247 28.3474ZM56.5079 20.5404L55.5629 19.3791H44.3322L48.8981 25.86C44.147 26.7912 39.6564 22.754 39.722 18.1296C39.7885 13.4047 43.6017 9.89535 48.1615 9.92606C53.1673 9.95773 58.1608 15.3847 56.5079 20.5404Z" fill="#6C6C75"/>
<path d="M35.515 12.6904C35.1973 11.469 34.4103 9.62128 33.0638 7.71179C33.0076 7.63067 32.9465 7.54954 32.8886 7.46777C32.8838 7.47424 32.8783 7.4807 32.8735 7.48717C31.453 9.40635 30.6708 11.1507 30.25 12.6891C32.8453 12.6898 35.3805 12.6904 35.515 12.6904Z" fill="#6C6C75"/>
<path d="M36.2381 17.9699C36.2381 17.0232 36.233 16.0911 36.0917 15.2686H29.8219C29.8012 15.2686 29.7915 15.9046 29.7915 16.2033C29.6661 18.8998 29.9311 20.1661 29.9311 20.1661C30.3135 22.9715 31.4024 25.7281 33.0727 28.1344C33.787 27.0128 36.2381 22.8054 36.2381 17.9699Z" fill="#6C6C75"/>
</svg>
