<svg width="164" height="21" viewBox="0 0 164 21" fill="none" xmlns="http://www.w3.org/2000/svg">
<path d="M32.709 0.108398L27.6692 8.69718L22.6511 0.108398H18.5625L25.922 11.8318V20.5514H29.2474V11.8263L36.5523 0.108398H32.709Z" fill="#6C6C75"/>
<path d="M13.6832 8.63994H3.32539V0.108398H0V20.5514H3.32539V11.7473H13.6832V20.5514H17.0086V0.108398H13.6832V8.63994Z" fill="#6C6C75"/>
<path d="M47.7822 0.108398H38.2422V20.5514H41.5676V12.1834H47.7822C51.353 12.1834 53.4518 9.812 53.4518 6.97724V5.39632C53.4518 2.39801 51.2167 0.108398 47.7822 0.108398ZM50.1264 6.59564C50.1264 7.90399 49.2269 9.18509 47.4552 9.18509H41.5676V3.27025H47.4552C49.1724 3.27025 50.1264 4.46957 50.1264 5.66889V6.59564Z" fill="#6C6C75"/>
<path d="M59.6652 11.6928H69.6414V8.63994H59.6652V3.21573H70.2138V0.108398H56.3398V20.5514H70.3774V17.4441H59.6652V11.6928Z" fill="#6C6C75"/>
<path d="M163.076 0.108398H147.648V3.05219H153.7V20.5514H157.025V3.05219H163.076V0.108398Z" fill="#6C6C75"/>
<path d="M87.6181 10.0682C88.8774 9.40042 89.6188 8.16021 89.6188 6.92273V5.12375C89.6188 2.61607 87.7653 0.108398 83.9493 0.108398H74.1094V20.5514H84.9033C88.8011 20.5514 90.2184 17.7439 90.2184 15.4815V14.0914C90.2184 12.4369 89.3653 10.9132 87.6181 10.0682ZM83.8402 3.21573C85.5029 3.21573 86.2934 4.36054 86.2934 5.50535V6.40484C86.2934 7.49513 85.5302 8.72171 83.8402 8.72171H77.4348V3.21573H83.8402ZM86.8931 15.209C86.8931 16.4628 85.83 17.4441 84.4399 17.4441H77.4348V11.7745H84.4399C86.0481 11.7745 86.8931 13.0284 86.8931 14.2277V15.209Z" fill="#6C6C75"/>
<path d="M139.391 8.53154H136.011C134.048 8.53154 132.849 7.38673 132.849 6.02387V5.53324C132.849 4.19763 133.667 2.99831 136.011 2.99831H138.491C140.563 2.99831 141.68 4.25214 141.68 5.64227H145.033C145.033 2.39864 142.689 0 138.927 0H135.629C131.84 0 129.523 2.31687 129.523 5.39695V6.43273C129.523 9.15846 132.004 11.8024 135.52 11.8024H138.845C141.081 11.8024 142.253 13.138 142.253 14.5009V14.8552C142.253 16.2181 141.162 17.6082 139.009 17.6082H136.201C134.375 17.6082 132.985 16.4362 132.985 14.7735H129.578C129.578 17.6355 131.595 20.661 135.956 20.661H139.254C143.07 20.661 145.578 18.2079 145.578 14.8552V14.2556C145.578 10.9029 142.552 8.53154 139.391 8.53154Z" fill="#6C6C75"/>
<path d="M96.7629 11.6928H106.739V8.63994H96.7629V3.21573H107.311V0.108398H93.4375V20.5514H107.475V17.4441H96.7629V11.6928Z" fill="#6C6C75"/>
<path d="M116.957 0.108398L109.57 20.5514H113.196L114.828 15.6996H122.858L124.507 20.5514H128.269L120.937 0.108398H116.957ZM115.839 12.7013L118.827 3.83175L121.839 12.7013H115.839Z" fill="#6C6C75"/>
</svg>
